<svg width="64" height="64" viewBox="0 0 64 64" fill="none" xmlns="http://www.w3.org/2000/svg">
<g clip-path="url(#clip0_641_2069)">
<path d="M52.6661 0.802011H11.3321C9.84313 0.800168 8.36848 1.09207 6.99254 1.66101C5.61661 2.22994 4.36642 3.06473 3.3136 4.11755C2.26077 5.17038 1.42599 6.42056 0.857052 7.7965C0.288118 9.17243 -0.00378702 10.6471 -0.00194446 12.136V51.864C-0.00378702 53.3529 0.288118 54.8276 0.857052 56.2035C1.42599 57.5795 2.26077 58.8296 3.3136 59.8825C4.36642 60.9353 5.61661 61.7701 6.99254 62.339C8.36848 62.908 9.84313 63.1999 11.3321 63.198H52.6661C54.155 63.1999 55.6296 62.908 57.0056 62.339C58.3815 61.7701 59.6317 60.9353 60.6845 59.8825C61.7373 58.8296 62.5721 57.5795 63.1411 56.2035C63.71 54.8276 64.0019 53.3529 64.0001 51.864V12.136C64.0019 10.6471 63.71 9.17243 63.1411 7.7965C62.5721 6.42056 61.7373 5.17038 60.6845 4.11755C59.6317 3.06473 58.3815 2.22994 57.0056 1.66101C55.6296 1.09207 54.155 0.800168 52.6661 0.802011ZM61.3021 50.824C61.3094 52.0956 61.0654 53.3562 60.584 54.5332C60.1026 55.7102 59.3933 56.7804 58.4969 57.6824C57.6005 58.5844 56.5347 59.3003 55.3607 59.789C54.1867 60.2777 52.9277 60.5295 51.6561 60.53H12.3441C9.77843 60.5263 7.31894 59.5055 5.50477 57.6913C3.69059 55.8771 2.66976 53.4176 2.66606 50.852V13.146C2.66976 10.5804 3.69059 8.1209 5.50477 6.30672C7.31894 4.49255 9.77843 3.47171 12.3441 3.46801H51.6241C54.1907 3.46854 56.652 4.48835 58.4669 6.30322C60.2817 8.11808 61.3015 10.5794 61.3021 13.146V50.824ZM25.3021 30L32.7721 44.344C32.9081 44.562 32.8261 44.77 32.6141 44.77H27.9681C27.6781 44.77 27.5421 44.698 27.4161 44.426C25.7101 40.906 23.9681 37.386 22.1861 33.604H22.1361C20.4963 37.2459 18.8047 40.8642 17.0621 44.458C16.9401 44.666 16.8041 44.748 16.5841 44.748H12.1861C11.9161 44.748 11.8961 44.53 12.0321 44.374L19.3341 30.456L12.2721 16.374C12.1041 16.156 12.2721 15.998 12.4261 15.998H17.0101C17.2801 15.998 17.3861 16.052 17.4901 16.288C19.1919 19.8359 20.8554 23.4021 22.4801 26.986H22.5301C24.0821 23.466 25.7921 19.81 27.4361 16.32C27.5721 16.102 27.6541 15.966 27.9161 15.966H32.2061C32.4241 15.966 32.5081 16.134 32.3741 16.342L25.3021 30ZM34.0821 34.344C34.0821 28.136 38.2081 23.28 44.7701 23.28C45.3321 23.28 45.6241 23.28 46.1561 23.334V16.272C46.1561 16.104 46.2901 16 46.4261 16H50.6341C50.8521 16 50.9061 16.082 50.9061 16.208V40.698C50.9061 41.416 50.9061 42.322 51.0421 43.3C51.0421 43.468 50.9881 43.518 50.8241 43.604C48.6917 44.6172 46.3609 45.1439 44.0001 45.146C38.2081 45.176 34.0821 41.604 34.0821 34.344ZM46.1581 27.52C45.6655 27.3317 45.1413 27.2401 44.6141 27.25C41.2521 27.25 38.9081 29.842 38.9081 34.136C38.9081 39.042 41.3021 41.01 44.3241 41.01C44.9581 41.01 45.6581 40.938 46.1581 40.72V27.52Z" fill="#00FF9F"/>
</g>
<defs>
<clipPath id="clip0_641_2069">
<rect width="64" height="64" fill="white"/>
</clipPath>
</defs>
</svg>
