<svg width="124" height="129" viewBox="0 0 124 129" fill="none" xmlns="http://www.w3.org/2000/svg">
<g filter="url(#filter0_d_1_2731)">
<path d="M75.0263 104.562C77.0465 103.686 77.8821 102.4 78.4881 101.642C83.9334 94.8473 72.3221 74.6687 55.743 62.9931C38.1723 47.695 18.8293 42.4794 13.384 49.279C12.452 50.4452 11.7174 52.0338 11.4144 53.8244L1.08404 113.263C0.725917 120.508 3.49445 123.263 4.88101 124.603C7.39243 127.046 12.2729 129.117 17.3692 127.326C37.0244 119.755 55.44 113.102 75.0263 104.567V104.562Z" fill="url(#paint0_linear_1_2731)"/>
</g>
<path d="M75.0263 104.562C77.0465 103.686 77.8821 102.4 78.4881 101.642C83.9334 94.8473 72.3221 74.6687 55.743 62.9931C38.1723 47.695 18.8293 42.4794 13.384 49.279C12.452 50.4452 11.7174 52.0338 11.4144 53.8244L1.08404 113.263C0.725917 120.508 3.49445 123.263 4.88101 124.603C7.39243 127.046 12.2729 129.117 17.3692 127.326C37.0244 119.755 55.44 113.102 75.0263 104.567V104.562Z" fill="url(#paint1_linear_1_2731)"/>
<path d="M75.0263 104.562C77.0465 103.686 77.8821 102.4 78.4881 101.642C83.9334 94.8473 72.3221 74.6687 55.743 62.9931C38.1723 47.695 18.8293 42.4794 13.384 49.279C12.452 50.4452 11.7174 52.0338 11.4144 53.8244L1.08404 113.263C0.725917 120.508 3.49445 123.263 4.88101 124.603C7.39243 127.046 12.2729 129.117 17.3692 127.326C37.0244 119.755 55.44 113.102 75.0263 104.567V104.562Z" fill="url(#paint2_linear_1_2731)"/>
<path d="M75.0263 104.562C77.0465 103.686 77.8821 102.4 78.4881 101.642C83.9334 94.8473 72.3221 74.6687 55.743 62.9931C38.1723 47.695 18.8293 42.4794 13.384 49.279C12.452 50.4452 11.7174 52.0338 11.4144 53.8244L1.08404 113.263C0.725917 120.508 3.49445 123.263 4.88101 124.603C7.39243 127.046 12.2729 129.117 17.3692 127.326C37.0244 119.755 55.44 113.102 75.0263 104.567V104.562Z" fill="url(#paint3_linear_1_2731)"/>
<g filter="url(#filter1_f_1_2731)">
<path d="M35.5285 88.1825C52.6308 102.404 71.0478 108.459 76.6639 101.705C82.28 94.9514 72.9686 77.9474 55.8662 63.7256C38.7639 49.5037 20.3469 43.4495 14.7308 50.2031C9.11468 56.9567 18.4261 73.9607 35.5285 88.1825Z" fill="url(#paint4_linear_1_2731)"/>
</g>
<g filter="url(#filter2_f_1_2731)">
<path d="M38.32 84.2372C54.1707 97.4182 70.8514 103.496 75.5774 97.8131C80.3034 92.1298 71.2851 76.8374 55.4345 63.6564C39.5838 50.4754 22.903 44.3972 18.177 50.0805C13.451 55.7637 22.4693 71.0562 38.32 84.2372Z" fill="url(#paint5_linear_1_2731)"/>
<path d="M38.32 84.2372C54.1707 97.4182 70.8514 103.496 75.5774 97.8131C80.3034 92.1298 71.2851 76.8374 55.4345 63.6564C39.5838 50.4754 22.903 44.3972 18.177 50.0805C13.451 55.7637 22.4693 71.0562 38.32 84.2372Z" fill="url(#paint6_radial_1_2731)"/>
<path d="M38.32 84.2372C54.1707 97.4182 70.8514 103.496 75.5774 97.8131C80.3034 92.1298 71.2851 76.8374 55.4345 63.6564C39.5838 50.4754 22.903 44.3972 18.177 50.0805C13.451 55.7637 22.4693 71.0562 38.32 84.2372Z" fill="url(#paint7_radial_1_2731)"/>
</g>
<path d="M57.9009 69.4284C60.9513 69.4284 63.4241 66.9556 63.4241 63.9051C63.4241 60.8547 60.9513 58.3818 57.9009 58.3818C54.8504 58.3818 52.3776 60.8547 52.3776 63.9051C52.3776 66.9556 54.8504 69.4284 57.9009 69.4284Z" fill="url(#paint8_radial_1_2731)"/>
<path d="M57.9009 69.4284C60.9513 69.4284 63.4241 66.9556 63.4241 63.9051C63.4241 60.8547 60.9513 58.3818 57.9009 58.3818C54.8504 58.3818 52.3776 60.8547 52.3776 63.9051C52.3776 66.9556 54.8504 69.4284 57.9009 69.4284Z" fill="url(#paint9_radial_1_2731)"/>
<path d="M103.24 101.136C106.29 101.136 108.763 98.6636 108.763 95.6131C108.763 92.5627 106.29 90.0898 103.24 90.0898C100.189 90.0898 97.7163 92.5627 97.7163 95.6131C97.7163 98.6636 100.189 101.136 103.24 101.136Z" fill="url(#paint10_radial_1_2731)"/>
<path d="M103.24 101.136C106.29 101.136 108.763 98.6636 108.763 95.6131C108.763 92.5627 106.29 90.0898 103.24 90.0898C100.189 90.0898 97.7163 92.5627 97.7163 95.6131C97.7163 98.6636 100.189 101.136 103.24 101.136Z" fill="url(#paint11_radial_1_2731)"/>
<path d="M103.24 101.136C106.29 101.136 108.763 98.6636 108.763 95.6131C108.763 92.5627 106.29 90.0898 103.24 90.0898C100.189 90.0898 97.7163 92.5627 97.7163 95.6131C97.7163 98.6636 100.189 101.136 103.24 101.136Z" fill="url(#paint12_radial_1_2731)"/>
<path d="M98.6117 28.1813C101.662 28.1813 104.135 25.7085 104.135 22.6581C104.135 19.6076 101.662 17.1348 98.6117 17.1348C95.5612 17.1348 93.0884 19.6076 93.0884 22.6581C93.0884 25.7085 95.5612 28.1813 98.6117 28.1813Z" fill="url(#paint13_radial_1_2731)"/>
<path d="M98.6117 28.1813C101.662 28.1813 104.135 25.7085 104.135 22.6581C104.135 19.6076 101.662 17.1348 98.6117 17.1348C95.5612 17.1348 93.0884 19.6076 93.0884 22.6581C93.0884 25.7085 95.5612 28.1813 98.6117 28.1813Z" fill="url(#paint14_radial_1_2731)"/>
<path d="M35.1053 11.4274C38.1557 11.4274 40.6286 8.95458 40.6286 5.90415C40.6286 2.85372 38.1557 0.380859 35.1053 0.380859C32.0549 0.380859 29.582 2.85372 29.582 5.90415C29.582 8.95458 32.0549 11.4274 35.1053 11.4274Z" fill="url(#paint15_radial_1_2731)"/>
<path d="M35.1053 11.4274C38.1557 11.4274 40.6286 8.95458 40.6286 5.90415C40.6286 2.85372 38.1557 0.380859 35.1053 0.380859C32.0549 0.380859 29.582 2.85372 29.582 5.90415C29.582 8.95458 32.0549 11.4274 35.1053 11.4274Z" fill="url(#paint16_radial_1_2731)"/>
<path d="M35.1053 11.4274C38.1557 11.4274 40.6286 8.95458 40.6286 5.90415C40.6286 2.85372 38.1557 0.380859 35.1053 0.380859C32.0549 0.380859 29.582 2.85372 29.582 5.90415C29.582 8.95458 32.0549 11.4274 35.1053 11.4274Z" fill="url(#paint17_radial_1_2731)"/>
<path d="M11.8598 33.1999C14.9103 33.1999 17.3831 30.727 17.3831 27.6766C17.3831 24.6262 14.9103 22.1533 11.8598 22.1533C8.80941 22.1533 6.33655 24.6262 6.33655 27.6766C6.33655 30.727 8.80941 33.1999 11.8598 33.1999Z" fill="url(#paint18_radial_1_2731)"/>
<path d="M11.8598 33.1999C14.9103 33.1999 17.3831 30.727 17.3831 27.6766C17.3831 24.6262 14.9103 22.1533 11.8598 22.1533C8.80941 22.1533 6.33655 24.6262 6.33655 27.6766C6.33655 30.727 8.80941 33.1999 11.8598 33.1999Z" fill="url(#paint19_radial_1_2731)"/>
<path d="M62.4783 109.865C50.5135 109.029 42.1206 105.448 28.5259 94.2129C16.8274 84.5529 11.0194 75.981 9.08192 67.2393L6.83679 80.1545C7.75504 85.2141 11.7035 92.2754 19.5225 99.346C29.7472 108.588 39.9306 115.126 49.9992 114.841C54.1723 113.215 58.3321 111.559 62.4783 109.865Z" fill="url(#paint20_radial_1_2731)"/>
<path d="M37.2449 119.75C31.492 120.071 23.719 115.379 15.6476 108.671C8.76066 102.716 5.36313 96.2472 4.6469 92.7578L2.36963 105.875C2.92976 108.093 4.65149 111.109 9.62382 116.205C15.1793 121.899 20.7714 124.121 24.0863 124.75L31.1201 122.078L37.2449 119.75Z" fill="url(#paint21_radial_1_2731)"/>
<g filter="url(#filter3_d_1_2731)">
<path fill-rule="evenodd" clip-rule="evenodd" d="M117.344 50.6323C100.825 47.4046 91.0636 54.971 87.9691 58.364C87.547 58.847 87.0327 59.241 86.4564 59.5228C85.8801 59.8045 85.2534 59.9685 84.6129 60.0049C83.9725 60.0414 83.3312 59.9497 82.7266 59.7351C82.122 59.5206 81.5664 59.1875 81.0922 58.7555C80.618 58.3235 80.2348 57.8011 79.965 57.2191C79.6952 56.6371 79.5444 56.0071 79.5212 55.366C79.498 54.7249 79.6031 54.0856 79.8301 53.4856C80.0572 52.8857 80.4017 52.337 80.8435 51.8719C85.6413 46.6057 98.6254 37.1477 119.194 41.1697C120.417 41.4472 121.483 42.1899 122.167 43.2404C122.851 44.2908 123.099 45.5663 122.858 46.7964C122.617 48.0265 121.907 49.1146 120.878 49.8298C119.848 50.545 118.581 50.8312 117.344 50.6277V50.6323Z" fill="url(#paint22_radial_1_2731)"/>
<path fill-rule="evenodd" clip-rule="evenodd" d="M117.344 50.6323C100.825 47.4046 91.0636 54.971 87.9691 58.364C87.547 58.847 87.0327 59.241 86.4564 59.5228C85.8801 59.8045 85.2534 59.9685 84.6129 60.0049C83.9725 60.0414 83.3312 59.9497 82.7266 59.7351C82.122 59.5206 81.5664 59.1875 81.0922 58.7555C80.618 58.3235 80.2348 57.8011 79.965 57.2191C79.6952 56.6371 79.5444 56.0071 79.5212 55.366C79.498 54.7249 79.6031 54.0856 79.8301 53.4856C80.0572 52.8857 80.4017 52.337 80.8435 51.8719C85.6413 46.6057 98.6254 37.1477 119.194 41.1697C120.417 41.4472 121.483 42.1899 122.167 43.2404C122.851 44.2908 123.099 45.5663 122.858 46.7964C122.617 48.0265 121.907 49.1146 120.878 49.8298C119.848 50.545 118.581 50.8312 117.344 50.6277V50.6323Z" fill="url(#paint23_radial_1_2731)"/>
</g>
<path fill-rule="evenodd" clip-rule="evenodd" d="M76.9455 0.00468492C77.5181 0.0311929 78.0799 0.170304 78.5987 0.414064C79.1175 0.657824 79.5831 1.00145 79.969 1.4253C80.3549 1.84915 80.6535 2.3449 80.8477 2.88422C81.0418 3.42354 81.1278 3.99584 81.1006 4.5684C80.8172 9.53316 80.081 14.4617 78.9014 19.2926C77.6985 24.2236 75.8482 29.6872 72.997 34.3749C73.6857 38.0295 73.7041 42.3407 72.9465 47.2442C72.77 48.3876 72.1464 49.414 71.2131 50.0977C70.2797 50.7813 69.113 51.0662 67.9696 50.8897C66.8262 50.7131 65.7998 50.0895 65.1161 49.1562C64.4325 48.2228 64.1476 47.0561 64.3242 45.9127C64.494 44.82 64.6134 43.7916 64.6915 42.8274C63.8638 43.263 62.9929 43.6108 62.0928 43.865C60.5216 44.3235 58.8691 44.4328 57.2512 44.1854C55.6332 43.938 54.089 43.3397 52.7266 42.4325C47.7956 39.1498 45.5229 31.9645 49.3383 26.0876C52.9654 20.5047 60.5318 18.985 66.28 22.961C66.9458 23.4201 67.5656 23.9343 68.1487 24.5083C69.0669 22.1897 69.8199 19.7104 70.4259 17.2265C71.7161 11.9374 72.2533 6.97881 72.3864 4.15978C72.4129 3.58759 72.5519 3.02623 72.7954 2.50775C73.0388 1.98926 73.382 1.52382 73.8054 1.13798C74.2288 0.75214 74.724 0.453469 75.2628 0.259017C75.8015 0.0645663 76.3734 -0.021856 76.9455 0.00468492ZM63.4151 32.7863C62.7539 31.4089 61.9642 30.5825 61.3215 30.1371C59.5217 28.8929 57.5475 29.4714 56.6522 30.8442C56.2136 31.5431 56.0633 32.3849 56.2328 33.1925C56.4024 34 56.8786 34.7102 57.5612 35.1738C58.1122 35.5411 58.8146 35.7247 59.7467 35.463C60.5915 35.2243 61.8816 34.5402 63.4151 32.7863Z" fill="url(#paint24_linear_1_2731)"/>
<path fill-rule="evenodd" clip-rule="evenodd" d="M76.9455 0.00468492C77.5181 0.0311929 78.0799 0.170304 78.5987 0.414064C79.1175 0.657824 79.5831 1.00145 79.969 1.4253C80.3549 1.84915 80.6535 2.3449 80.8477 2.88422C81.0418 3.42354 81.1278 3.99584 81.1006 4.5684C80.8172 9.53316 80.081 14.4617 78.9014 19.2926C77.6985 24.2236 75.8482 29.6872 72.997 34.3749C73.6857 38.0295 73.7041 42.3407 72.9465 47.2442C72.77 48.3876 72.1464 49.414 71.2131 50.0977C70.2797 50.7813 69.113 51.0662 67.9696 50.8897C66.8262 50.7131 65.7998 50.0895 65.1161 49.1562C64.4325 48.2228 64.1476 47.0561 64.3242 45.9127C64.494 44.82 64.6134 43.7916 64.6915 42.8274C63.8638 43.263 62.9929 43.6108 62.0928 43.865C60.5216 44.3235 58.8691 44.4328 57.2512 44.1854C55.6332 43.938 54.089 43.3397 52.7266 42.4325C47.7956 39.1498 45.5229 31.9645 49.3383 26.0876C52.9654 20.5047 60.5318 18.985 66.28 22.961C66.9458 23.4201 67.5656 23.9343 68.1487 24.5083C69.0669 22.1897 69.8199 19.7104 70.4259 17.2265C71.7161 11.9374 72.2533 6.97881 72.3864 4.15978C72.4129 3.58759 72.5519 3.02623 72.7954 2.50775C73.0388 1.98926 73.382 1.52382 73.8054 1.13798C74.2288 0.75214 74.724 0.453469 75.2628 0.259017C75.8015 0.0645663 76.3734 -0.021856 76.9455 0.00468492ZM63.4151 32.7863C62.7539 31.4089 61.9642 30.5825 61.3215 30.1371C59.5217 28.8929 57.5475 29.4714 56.6522 30.8442C56.2136 31.5431 56.0633 32.3849 56.2328 33.1925C56.4024 34 56.8786 34.7102 57.5612 35.1738C58.1122 35.5411 58.8146 35.7247 59.7467 35.463C60.5915 35.2243 61.8816 34.5402 63.4151 32.7863Z" fill="url(#paint25_radial_1_2731)"/>
<path fill-rule="evenodd" clip-rule="evenodd" d="M76.9455 0.00468492C77.5181 0.0311929 78.0799 0.170304 78.5987 0.414064C79.1175 0.657824 79.5831 1.00145 79.969 1.4253C80.3549 1.84915 80.6535 2.3449 80.8477 2.88422C81.0418 3.42354 81.1278 3.99584 81.1006 4.5684C80.8172 9.53316 80.081 14.4617 78.9014 19.2926C77.6985 24.2236 75.8482 29.6872 72.997 34.3749C73.6857 38.0295 73.7041 42.3407 72.9465 47.2442C72.77 48.3876 72.1464 49.414 71.2131 50.0977C70.2797 50.7813 69.113 51.0662 67.9696 50.8897C66.8262 50.7131 65.7998 50.0895 65.1161 49.1562C64.4325 48.2228 64.1476 47.0561 64.3242 45.9127C64.494 44.82 64.6134 43.7916 64.6915 42.8274C63.8638 43.263 62.9929 43.6108 62.0928 43.865C60.5216 44.3235 58.8691 44.4328 57.2512 44.1854C55.6332 43.938 54.089 43.3397 52.7266 42.4325C47.7956 39.1498 45.5229 31.9645 49.3383 26.0876C52.9654 20.5047 60.5318 18.985 66.28 22.961C66.9458 23.4201 67.5656 23.9343 68.1487 24.5083C69.0669 22.1897 69.8199 19.7104 70.4259 17.2265C71.7161 11.9374 72.2533 6.97881 72.3864 4.15978C72.4129 3.58759 72.5519 3.02623 72.7954 2.50775C73.0388 1.98926 73.382 1.52382 73.8054 1.13798C74.2288 0.75214 74.724 0.453469 75.2628 0.259017C75.8015 0.0645663 76.3734 -0.021856 76.9455 0.00468492ZM63.4151 32.7863C62.7539 31.4089 61.9642 30.5825 61.3215 30.1371C59.5217 28.8929 57.5475 29.4714 56.6522 30.8442C56.2136 31.5431 56.0633 32.3849 56.2328 33.1925C56.4024 34 56.8786 34.7102 57.5612 35.1738C58.1122 35.5411 58.8146 35.7247 59.7467 35.463C60.5915 35.2243 61.8816 34.5402 63.4151 32.7863Z" fill="url(#paint26_radial_1_2731)"/>
<path fill-rule="evenodd" clip-rule="evenodd" d="M76.9455 0.00468492C77.5181 0.0311929 78.0799 0.170304 78.5987 0.414064C79.1175 0.657824 79.5831 1.00145 79.969 1.4253C80.3549 1.84915 80.6535 2.3449 80.8477 2.88422C81.0418 3.42354 81.1278 3.99584 81.1006 4.5684C80.8172 9.53316 80.081 14.4617 78.9014 19.2926C77.6985 24.2236 75.8482 29.6872 72.997 34.3749C73.6857 38.0295 73.7041 42.3407 72.9465 47.2442C72.77 48.3876 72.1464 49.414 71.2131 50.0977C70.2797 50.7813 69.113 51.0662 67.9696 50.8897C66.8262 50.7131 65.7998 50.0895 65.1161 49.1562C64.4325 48.2228 64.1476 47.0561 64.3242 45.9127C64.494 44.82 64.6134 43.7916 64.6915 42.8274C63.8638 43.263 62.9929 43.6108 62.0928 43.865C60.5216 44.3235 58.8691 44.4328 57.2512 44.1854C55.6332 43.938 54.089 43.3397 52.7266 42.4325C47.7956 39.1498 45.5229 31.9645 49.3383 26.0876C52.9654 20.5047 60.5318 18.985 66.28 22.961C66.9458 23.4201 67.5656 23.9343 68.1487 24.5083C69.0669 22.1897 69.8199 19.7104 70.4259 17.2265C71.7161 11.9374 72.2533 6.97881 72.3864 4.15978C72.4129 3.58759 72.5519 3.02623 72.7954 2.50775C73.0388 1.98926 73.382 1.52382 73.8054 1.13798C74.2288 0.75214 74.724 0.453469 75.2628 0.259017C75.8015 0.0645663 76.3734 -0.021856 76.9455 0.00468492ZM63.4151 32.7863C62.7539 31.4089 61.9642 30.5825 61.3215 30.1371C59.5217 28.8929 57.5475 29.4714 56.6522 30.8442C56.2136 31.5431 56.0633 32.3849 56.2328 33.1925C56.4024 34 56.8786 34.7102 57.5612 35.1738C58.1122 35.5411 58.8146 35.7247 59.7467 35.463C60.5915 35.2243 61.8816 34.5402 63.4151 32.7863Z" fill="url(#paint27_radial_1_2731)"/>
<path fill-rule="evenodd" clip-rule="evenodd" d="M52.7862 94.2353C49.4174 92.3582 46.1738 90.2648 43.0757 87.9683C48.0618 81.7838 56.9734 73.6757 68.5893 67.8218C87.6752 58.1985 108.722 63.4188 117.303 66.8209C118.003 67.0989 118.642 67.5121 119.183 68.037C119.724 68.5619 120.156 69.1882 120.455 69.8802C120.754 70.5721 120.914 71.3161 120.925 72.0698C120.936 72.8234 120.799 73.5719 120.521 74.2725C120.243 74.9731 119.83 75.6121 119.305 76.1531C118.78 76.694 118.154 77.1262 117.462 77.4251C116.77 77.7239 116.026 77.8836 115.272 77.8949C114.519 77.9062 113.77 77.769 113.069 77.491C105.719 74.5756 88.5292 70.6225 73.7545 78.0695C64.0118 82.9822 56.7668 89.5844 52.7862 94.2353Z" fill="url(#paint28_linear_1_2731)"/>
<path fill-rule="evenodd" clip-rule="evenodd" d="M52.7862 94.2353C49.4174 92.3582 46.1738 90.2648 43.0757 87.9683C48.0618 81.7838 56.9734 73.6757 68.5893 67.8218C87.6752 58.1985 108.722 63.4188 117.303 66.8209C118.003 67.0989 118.642 67.5121 119.183 68.037C119.724 68.5619 120.156 69.1882 120.455 69.8802C120.754 70.5721 120.914 71.3161 120.925 72.0698C120.936 72.8234 120.799 73.5719 120.521 74.2725C120.243 74.9731 119.83 75.6121 119.305 76.1531C118.78 76.694 118.154 77.1262 117.462 77.4251C116.77 77.7239 116.026 77.8836 115.272 77.8949C114.519 77.9062 113.77 77.769 113.069 77.491C105.719 74.5756 88.5292 70.6225 73.7545 78.0695C64.0118 82.9822 56.7668 89.5844 52.7862 94.2353Z" fill="url(#paint29_radial_1_2731)"/>
<path fill-rule="evenodd" clip-rule="evenodd" d="M52.7862 94.2353C49.4174 92.3582 46.1738 90.2648 43.0757 87.9683C48.0618 81.7838 56.9734 73.6757 68.5893 67.8218C87.6752 58.1985 108.722 63.4188 117.303 66.8209C118.003 67.0989 118.642 67.5121 119.183 68.037C119.724 68.5619 120.156 69.1882 120.455 69.8802C120.754 70.5721 120.914 71.3161 120.925 72.0698C120.936 72.8234 120.799 73.5719 120.521 74.2725C120.243 74.9731 119.83 75.6121 119.305 76.1531C118.78 76.694 118.154 77.1262 117.462 77.4251C116.77 77.7239 116.026 77.8836 115.272 77.8949C114.519 77.9062 113.77 77.769 113.069 77.491C105.719 74.5756 88.5292 70.6225 73.7545 78.0695C64.0118 82.9822 56.7668 89.5844 52.7862 94.2353Z" fill="url(#paint30_radial_1_2731)"/>
<path fill-rule="evenodd" clip-rule="evenodd" d="M52.7862 94.2353C49.4174 92.3582 46.1738 90.2648 43.0757 87.9683C48.0618 81.7838 56.9734 73.6757 68.5893 67.8218C87.6752 58.1985 108.722 63.4188 117.303 66.8209C118.003 67.0989 118.642 67.5121 119.183 68.037C119.724 68.5619 120.156 69.1882 120.455 69.8802C120.754 70.5721 120.914 71.3161 120.925 72.0698C120.936 72.8234 120.799 73.5719 120.521 74.2725C120.243 74.9731 119.83 75.6121 119.305 76.1531C118.78 76.694 118.154 77.1262 117.462 77.4251C116.77 77.7239 116.026 77.8836 115.272 77.8949C114.519 77.9062 113.77 77.769 113.069 77.491C105.719 74.5756 88.5292 70.6225 73.7545 78.0695C64.0118 82.9822 56.7668 89.5844 52.7862 94.2353Z" fill="url(#paint31_radial_1_2731)"/>
<g filter="url(#filter4_d_1_2731)">
<path fill-rule="evenodd" clip-rule="evenodd" d="M36.0281 20.9927C35.6613 20.334 35.1682 19.754 34.5772 19.2858C33.9862 18.8176 33.3087 18.4705 32.5835 18.2641C31.8583 18.0578 31.0996 17.9963 30.3506 18.0832C29.6016 18.17 28.8771 18.4036 28.2184 18.7705C27.5597 19.1374 26.9797 19.6304 26.5115 20.2214C26.0434 20.8125 25.6962 21.4899 25.4899 22.2151C25.2835 22.9403 25.222 23.6991 25.3089 24.448C25.3958 25.197 25.6293 25.9215 25.9962 26.5802C28.324 30.7583 31.1889 36.6672 31.5563 44.2704C31.8776 50.8955 30.3166 59.2976 23.9761 69.38C26.3834 72.5328 29.0149 75.508 31.8501 78.2824C40.7939 65.2754 43.4981 53.6228 43.0206 43.7148C42.5294 33.4763 38.6498 25.7079 36.0281 20.9927Z" fill="url(#paint32_radial_1_2731)"/>
<path fill-rule="evenodd" clip-rule="evenodd" d="M36.0281 20.9927C35.6613 20.334 35.1682 19.754 34.5772 19.2858C33.9862 18.8176 33.3087 18.4705 32.5835 18.2641C31.8583 18.0578 31.0996 17.9963 30.3506 18.0832C29.6016 18.17 28.8771 18.4036 28.2184 18.7705C27.5597 19.1374 26.9797 19.6304 26.5115 20.2214C26.0434 20.8125 25.6962 21.4899 25.4899 22.2151C25.2835 22.9403 25.222 23.6991 25.3089 24.448C25.3958 25.197 25.6293 25.9215 25.9962 26.5802C28.324 30.7583 31.1889 36.6672 31.5563 44.2704C31.8776 50.8955 30.3166 59.2976 23.9761 69.38C26.3834 72.5328 29.0149 75.508 31.8501 78.2824C40.7939 65.2754 43.4981 53.6228 43.0206 43.7148C42.5294 33.4763 38.6498 25.7079 36.0281 20.9927Z" fill="url(#paint33_radial_1_2731)"/>
</g>
<path d="M48.2546 28.1443C48.5347 27.451 48.8974 26.7623 49.329 26.092C52.9561 20.5044 60.5225 18.9847 66.2708 22.9607C66.9365 23.4199 67.5563 23.9341 68.1394 24.508C68.3231 24.0351 68.5067 23.553 68.6812 23.0663L68.7041 23.1582C67.5242 26.8771 64.875 30.8623 63.4012 32.7815C62.7401 31.4041 61.955 30.5777 61.3122 30.1369C59.5124 28.8927 57.5336 29.4712 56.6429 30.8439C56.609 30.8964 56.5768 30.95 56.5465 31.0046L48.2546 28.1443Z" fill="url(#paint34_radial_1_2731)"/>
<path d="M48.2546 28.1443C48.5347 27.451 48.8974 26.7623 49.329 26.092C52.9561 20.5044 60.5225 18.9847 66.2708 22.9607C66.9365 23.4199 67.5563 23.9341 68.1394 24.508C68.3231 24.0351 68.5067 23.553 68.6812 23.0663L68.7041 23.1582C67.5242 26.8771 64.875 30.8623 63.4012 32.7815C62.7401 31.4041 61.955 30.5777 61.3122 30.1369C59.5124 28.8927 57.5336 29.4712 56.6429 30.8439C56.609 30.8964 56.5768 30.95 56.5465 31.0046L48.2546 28.1443Z" fill="url(#paint35_radial_1_2731)"/>
<g filter="url(#filter5_d_1_2731)">
<path d="M72.9878 34.374C73.6765 38.0287 73.6949 42.3445 72.9373 47.2433C72.7607 48.3867 72.1372 49.4132 71.2038 50.0968C70.2705 50.7805 69.1038 51.0654 67.9604 50.8888C66.817 50.7122 65.7905 50.0887 65.1069 49.1553C64.4232 48.222 64.1383 47.0553 64.3149 45.9119C64.4848 44.8191 64.6042 43.7953 64.6822 42.8357C69.1908 40.0029 72.166 36.2381 72.9878 34.374Z" fill="#44B6FF"/>
</g>
<path d="M72.9878 34.374C73.6765 38.0287 73.6949 42.3445 72.9373 47.2433C72.7607 48.3867 72.1372 49.4132 71.2038 50.0968C70.2705 50.7805 69.1038 51.0654 67.9604 50.8888C66.817 50.7122 65.7905 50.0887 65.1069 49.1553C64.4232 48.222 64.1383 47.0553 64.3149 45.9119C64.4848 44.8191 64.6042 43.7953 64.6822 42.8357C69.1908 40.0029 72.166 36.2381 72.9878 34.374Z" fill="url(#paint36_radial_1_2731)"/>
<g filter="url(#filter6_f_1_2731)">
<path d="M65.2194 27.9664C63.9981 26.3135 60.0864 23.3751 55.1737 26.4237C53.5254 27.4476 52.5567 31.2996 53.3097 33.9212" stroke="url(#paint37_linear_1_2731)" stroke-width="0.3" stroke-linecap="round"/>
</g>
<g filter="url(#filter7_f_1_2731)">
<path d="M78.635 4.29297C78.2493 11.2258 75.2467 27.5936 66.2937 37.5796" stroke="url(#paint38_linear_1_2731)" stroke-width="0.3" stroke-linecap="round"/>
</g>
<defs>
<filter id="filter0_d_1_2731" x="0.0523682" y="44.8477" width="80.7935" height="83.6533" filterUnits="userSpaceOnUse" color-interpolation-filters="sRGB">
<feFlood flood-opacity="0" result="BackgroundImageFix"/>
<feColorMatrix in="SourceAlpha" type="matrix" values="0 0 0 0 0 0 0 0 0 0 0 0 0 0 0 0 0 0 127 0" result="hardAlpha"/>
<feOffset dy="-0.5"/>
<feGaussianBlur stdDeviation="0.5"/>
<feComposite in2="hardAlpha" operator="out"/>
<feColorMatrix type="matrix" values="0 0 0 0 0.92549 0 0 0 0 0.34902 0 0 0 0 0.384314 0 0 0 1 0"/>
<feBlend mode="normal" in2="BackgroundImageFix" result="effect1_dropShadow_1_2731"/>
<feBlend mode="normal" in="SourceGraphic" in2="effect1_dropShadow_1_2731" result="shape"/>
</filter>
<filter id="filter1_f_1_2731" x="12.5951" y="46.9404" width="66.2046" height="58.0273" filterUnits="userSpaceOnUse" color-interpolation-filters="sRGB">
<feFlood flood-opacity="0" result="BackgroundImageFix"/>
<feBlend mode="normal" in="SourceGraphic" in2="BackgroundImageFix" result="shape"/>
<feGaussianBlur stdDeviation="0.25" result="effect1_foregroundBlur_1_2731"/>
</filter>
<filter id="filter2_f_1_2731" x="16.7207" y="47.7502" width="60.3132" height="52.3932" filterUnits="userSpaceOnUse" color-interpolation-filters="sRGB">
<feFlood flood-opacity="0" result="BackgroundImageFix"/>
<feBlend mode="normal" in="SourceGraphic" in2="BackgroundImageFix" result="shape"/>
<feGaussianBlur stdDeviation="0.1" result="effect1_foregroundBlur_1_2731"/>
</filter>
<filter id="filter3_d_1_2731" x="79.2681" y="39.4502" width="44.4296" height="20.8125" filterUnits="userSpaceOnUse" color-interpolation-filters="sRGB">
<feFlood flood-opacity="0" result="BackgroundImageFix"/>
<feColorMatrix in="SourceAlpha" type="matrix" values="0 0 0 0 0 0 0 0 0 0 0 0 0 0 0 0 0 0 127 0" result="hardAlpha"/>
<feOffset dx="0.25" dy="-0.25"/>
<feGaussianBlur stdDeviation="0.25"/>
<feComposite in2="hardAlpha" operator="out"/>
<feColorMatrix type="matrix" values="0 0 0 0 0.721569 0 0 0 0 0.270588 0 0 0 0 0.470588 0 0 0 1 0"/>
<feBlend mode="normal" in2="BackgroundImageFix" result="effect1_dropShadow_1_2731"/>
<feBlend mode="normal" in="SourceGraphic" in2="effect1_dropShadow_1_2731" result="shape"/>
</filter>
<filter id="filter4_d_1_2731" x="23.1261" y="17.2949" width="21.097" height="62.2373" filterUnits="userSpaceOnUse" color-interpolation-filters="sRGB">
<feFlood flood-opacity="0" result="BackgroundImageFix"/>
<feColorMatrix in="SourceAlpha" type="matrix" values="0 0 0 0 0 0 0 0 0 0 0 0 0 0 0 0 0 0 127 0" result="hardAlpha"/>
<feOffset dx="0.15" dy="0.25"/>
<feGaussianBlur stdDeviation="0.5"/>
<feComposite in2="hardAlpha" operator="out"/>
<feColorMatrix type="matrix" values="0 0 0 0 0.721569 0 0 0 0 0.184314 0 0 0 0 0.447059 0 0 0 1 0"/>
<feBlend mode="normal" in2="BackgroundImageFix" result="effect1_dropShadow_1_2731"/>
<feBlend mode="normal" in="SourceGraphic" in2="effect1_dropShadow_1_2731" result="shape"/>
</filter>
<filter id="filter5_d_1_2731" x="64.1138" y="33.474" width="10.5412" height="17.8654" filterUnits="userSpaceOnUse" color-interpolation-filters="sRGB">
<feFlood flood-opacity="0" result="BackgroundImageFix"/>
<feColorMatrix in="SourceAlpha" type="matrix" values="0 0 0 0 0 0 0 0 0 0 0 0 0 0 0 0 0 0 127 0" result="hardAlpha"/>
<feOffset dx="0.5" dy="-0.25"/>
<feGaussianBlur stdDeviation="0.325"/>
<feComposite in2="hardAlpha" operator="out"/>
<feColorMatrix type="matrix" values="0 0 0 0 0.239216 0 0 0 0 0.439216 0 0 0 0 0.768627 0 0 0 1 0"/>
<feBlend mode="normal" in2="BackgroundImageFix" result="effect1_dropShadow_1_2731"/>
<feBlend mode="normal" in="SourceGraphic" in2="effect1_dropShadow_1_2731" result="shape"/>
</filter>
<filter id="filter6_f_1_2731" x="52.6005" y="24.6473" width="13.0689" height="9.72402" filterUnits="userSpaceOnUse" color-interpolation-filters="sRGB">
<feFlood flood-opacity="0" result="BackgroundImageFix"/>
<feBlend mode="normal" in="SourceGraphic" in2="BackgroundImageFix" result="shape"/>
<feGaussianBlur stdDeviation="0.15" result="effect1_foregroundBlur_1_2731"/>
</filter>
<filter id="filter7_f_1_2731" x="65.6937" y="3.69258" width="13.5414" height="34.4869" filterUnits="userSpaceOnUse" color-interpolation-filters="sRGB">
<feFlood flood-opacity="0" result="BackgroundImageFix"/>
<feBlend mode="normal" in="SourceGraphic" in2="BackgroundImageFix" result="shape"/>
<feGaussianBlur stdDeviation="0.225" result="effect1_foregroundBlur_1_2731"/>
</filter>
<linearGradient id="paint0_linear_1_2731" x1="8.6183" y1="82.1984" x2="45.6331" y2="114.337" gradientUnits="userSpaceOnUse">
<stop stop-color="#B3843C"/>
<stop offset="1" stop-color="#F17A61"/>
</linearGradient>
<linearGradient id="paint1_linear_1_2731" x1="4.52748" y1="87.1753" x2="15.3583" y2="89.3745" gradientUnits="userSpaceOnUse">
<stop stop-color="#B1853B"/>
<stop offset="1" stop-color="#B1853B" stop-opacity="0"/>
</linearGradient>
<linearGradient id="paint2_linear_1_2731" x1="79.8471" y1="99.8472" x2="61.5601" y2="102.859" gradientUnits="userSpaceOnUse">
<stop stop-color="#F9C26C"/>
<stop offset="1" stop-color="#F9C26C" stop-opacity="0"/>
</linearGradient>
<linearGradient id="paint3_linear_1_2731" x1="40.4495" y1="47.3369" x2="28.7051" y2="67.2768" gradientUnits="userSpaceOnUse">
<stop stop-color="#E6BF69"/>
<stop offset="1" stop-color="#E6BF69" stop-opacity="0"/>
</linearGradient>
<linearGradient id="paint4_linear_1_2731" x1="36.4504" y1="87.2533" x2="60.2827" y2="65.983" gradientUnits="userSpaceOnUse">
<stop stop-color="#FCCB57"/>
<stop offset="1" stop-color="#F5BD55"/>
</linearGradient>
<linearGradient id="paint5_linear_1_2731" x1="21.6711" y1="51.0632" x2="77.4849" y2="102.283" gradientUnits="userSpaceOnUse">
<stop stop-color="#F3AB2C"/>
<stop offset="1" stop-color="#B57F1E"/>
</linearGradient>
<radialGradient id="paint6_radial_1_2731" cx="0" cy="0" r="1" gradientUnits="userSpaceOnUse" gradientTransform="translate(25.5512 70.1476) rotate(-69.379) scale(29.7399 8.32979)">
<stop offset="0.423" stop-color="#CA851E"/>
<stop offset="1" stop-color="#CA851E" stop-opacity="0"/>
</radialGradient>
<radialGradient id="paint7_radial_1_2731" cx="0" cy="0" r="1" gradientUnits="userSpaceOnUse" gradientTransform="translate(49.2228 90.3777) rotate(-33.3512) scale(29.887 17.5021)">
<stop stop-color="#BC7F28"/>
<stop offset="1" stop-color="#BC7F28" stop-opacity="0"/>
</radialGradient>
<radialGradient id="paint8_radial_1_2731" cx="0" cy="0" r="1" gradientUnits="userSpaceOnUse" gradientTransform="translate(60.3408 62.4005) rotate(138.668) scale(7.92961)">
<stop stop-color="#5AC0FF"/>
<stop offset="1" stop-color="#3279B6"/>
</radialGradient>
<radialGradient id="paint9_radial_1_2731" cx="0" cy="0" r="1" gradientUnits="userSpaceOnUse" gradientTransform="translate(58.989 63.143) rotate(160.051) scale(7.96304 8.72851)">
<stop offset="0.535" stop-color="#3A619E" stop-opacity="0"/>
<stop offset="1" stop-color="#3A619E"/>
</radialGradient>
<radialGradient id="paint10_radial_1_2731" cx="0" cy="0" r="1" gradientUnits="userSpaceOnUse" gradientTransform="translate(106.44 93.2773) rotate(134.569) scale(9.07936)">
<stop stop-color="#FDD46C"/>
<stop offset="1" stop-color="#F09C53"/>
</radialGradient>
<radialGradient id="paint11_radial_1_2731" cx="0" cy="0" r="1" gradientUnits="userSpaceOnUse" gradientTransform="translate(104.263 92.801) rotate(100.827) scale(8.9935)">
<stop offset="0.792" stop-color="#E76260" stop-opacity="0"/>
<stop offset="0.964" stop-color="#E76260"/>
</radialGradient>
<radialGradient id="paint12_radial_1_2731" cx="0" cy="0" r="1" gradientUnits="userSpaceOnUse" gradientTransform="translate(105.875 96.5268) rotate(-147.558) scale(9.10772 10.7256)">
<stop offset="0.482" stop-color="#AA885A" stop-opacity="0"/>
<stop offset="0.907" stop-color="#AA885A"/>
</radialGradient>
<radialGradient id="paint13_radial_1_2731" cx="0" cy="0" r="1" gradientUnits="userSpaceOnUse" gradientTransform="translate(102.568 20.5067) rotate(132.387) scale(9.45855)">
<stop stop-color="#FF46AA"/>
<stop offset="1" stop-color="#E3189D"/>
</radialGradient>
<radialGradient id="paint14_radial_1_2731" cx="0" cy="0" r="1" gradientUnits="userSpaceOnUse" gradientTransform="translate(100.944 23.6589) rotate(-173.29) scale(8.59578 11.5038)">
<stop offset="0.522" stop-color="#B63173" stop-opacity="0"/>
<stop offset="1" stop-color="#B63173"/>
</radialGradient>
<radialGradient id="paint15_radial_1_2731" cx="0" cy="0" r="1" gradientUnits="userSpaceOnUse" gradientTransform="translate(38.7205 3.69363) rotate(139.574) scale(8.45334)">
<stop stop-color="#FFF46F"/>
<stop offset="1" stop-color="#EFB93C"/>
</radialGradient>
<radialGradient id="paint16_radial_1_2731" cx="0" cy="0" r="1" gradientUnits="userSpaceOnUse" gradientTransform="translate(37.5112 5.00842) rotate(-178.519) scale(8.79062 8.36973)">
<stop offset="0.559" stop-color="#AA904B" stop-opacity="0"/>
<stop offset="0.944" stop-color="#AA904B"/>
</radialGradient>
<radialGradient id="paint17_radial_1_2731" cx="0" cy="0" r="1" gradientUnits="userSpaceOnUse" gradientTransform="translate(36.524 2.78668) rotate(102.339) scale(9.39966)">
<stop offset="0.772" stop-color="#C47072" stop-opacity="0"/>
<stop offset="1" stop-color="#C47072"/>
</radialGradient>
<radialGradient id="paint18_radial_1_2731" cx="0" cy="0" r="1" gradientUnits="userSpaceOnUse" gradientTransform="translate(15.8227 25.528) rotate(132.387) scale(9.45855)">
<stop stop-color="#FF46AA"/>
<stop offset="1" stop-color="#E3189D"/>
</radialGradient>
<radialGradient id="paint19_radial_1_2731" cx="0" cy="0" r="1" gradientUnits="userSpaceOnUse" gradientTransform="translate(14.1922 28.6821) rotate(-173.29) scale(8.59578 11.5038)">
<stop offset="0.522" stop-color="#B63173" stop-opacity="0"/>
<stop offset="1" stop-color="#B63173"/>
</radialGradient>
<radialGradient id="paint20_radial_1_2731" cx="0" cy="0" r="1" gradientUnits="userSpaceOnUse" gradientTransform="translate(40.757 105.585) rotate(133.21) scale(19.4886 42.6689)">
<stop stop-color="#3365FF"/>
<stop offset="1" stop-color="#356DB9"/>
</radialGradient>
<radialGradient id="paint21_radial_1_2731" cx="0" cy="0" r="1" gradientUnits="userSpaceOnUse" gradientTransform="translate(23.2527 119.075) rotate(131.598) scale(12.0299 30.4306)">
<stop stop-color="#3365FF"/>
<stop offset="1" stop-color="#356DB9"/>
</radialGradient>
<radialGradient id="paint22_radial_1_2731" cx="0" cy="0" r="1" gradientUnits="userSpaceOnUse" gradientTransform="translate(115.65 45.0391) rotate(168.283) scale(19.7816 7.38009)">
<stop stop-color="#FF3BA9"/>
<stop offset="1" stop-color="#F422A7"/>
</radialGradient>
<radialGradient id="paint23_radial_1_2731" cx="0" cy="0" r="1" gradientUnits="userSpaceOnUse" gradientTransform="translate(101.339 60.8186) rotate(-127.355) scale(20.3963 36.3503)">
<stop offset="0.752" stop-color="#B8306F" stop-opacity="0"/>
<stop offset="1" stop-color="#B8306F"/>
</radialGradient>
<linearGradient id="paint24_linear_1_2731" x1="76.7527" y1="9.28863e-05" x2="56.1747" y2="49.3194" gradientUnits="userSpaceOnUse">
<stop stop-color="#20B2EE"/>
<stop offset="1" stop-color="#2689DA"/>
</linearGradient>
<radialGradient id="paint25_radial_1_2731" cx="0" cy="0" r="1" gradientUnits="userSpaceOnUse" gradientTransform="translate(72.2355 16.0238) rotate(128.217) scale(35.6311 21.7947)">
<stop offset="0.802" stop-color="#4274D2" stop-opacity="0"/>
<stop offset="0.951" stop-color="#4274D2"/>
</radialGradient>
<radialGradient id="paint26_radial_1_2731" cx="0" cy="0" r="1" gradientUnits="userSpaceOnUse" gradientTransform="translate(70.4535 11.8961) rotate(12.095) scale(5.1357 17.2409)">
<stop stop-color="#4D8EC0"/>
<stop offset="1" stop-color="#4D8EC0" stop-opacity="0"/>
</radialGradient>
<radialGradient id="paint27_radial_1_2731" cx="0" cy="0" r="1" gradientUnits="userSpaceOnUse" gradientTransform="translate(80.6461 0.776016) rotate(141.953) scale(6.28564 5.65117)">
<stop stop-color="#5ADEFF"/>
<stop offset="1" stop-color="#5ADEFF" stop-opacity="0"/>
</radialGradient>
<linearGradient id="paint28_linear_1_2731" x1="55.5777" y1="90.0527" x2="117.147" y2="73.919" gradientUnits="userSpaceOnUse">
<stop stop-color="#3797E2"/>
<stop offset="1" stop-color="#37AEFF"/>
</linearGradient>
<radialGradient id="paint29_radial_1_2731" cx="0" cy="0" r="1" gradientUnits="userSpaceOnUse" gradientTransform="translate(78.3519 100.115) rotate(-129.838) scale(36.6384 91.8418)">
<stop offset="0.623" stop-color="#526579" stop-opacity="0"/>
<stop offset="0.962" stop-color="#526579"/>
</radialGradient>
<radialGradient id="paint30_radial_1_2731" cx="0" cy="0" r="1" gradientUnits="userSpaceOnUse" gradientTransform="translate(98.9284 80.3422) rotate(94.399) scale(12.5764 25.285)">
<stop offset="0.396" stop-color="#6972FF"/>
<stop offset="1" stop-color="#6972FF" stop-opacity="0"/>
</radialGradient>
<radialGradient id="paint31_radial_1_2731" cx="0" cy="0" r="1" gradientUnits="userSpaceOnUse" gradientTransform="translate(117.578 69.7777) rotate(-68.8191) scale(3.44821 2.71928)">
<stop stop-color="#55BFFF"/>
<stop offset="1" stop-color="#55BFFF" stop-opacity="0"/>
</radialGradient>
<radialGradient id="paint32_radial_1_2731" cx="0" cy="0" r="1" gradientUnits="userSpaceOnUse" gradientTransform="translate(39.0216 19.9964) rotate(99.4229) scale(33.5706 12.5769)">
<stop stop-color="#FF3AAA"/>
<stop offset="1" stop-color="#FD2F89"/>
</radialGradient>
<radialGradient id="paint33_radial_1_2731" cx="0" cy="0" r="1" gradientUnits="userSpaceOnUse" gradientTransform="translate(21.491 54.6155) rotate(31.176) scale(22.0769 69.2835)">
<stop offset="0.804" stop-color="#DB2C6E" stop-opacity="0"/>
<stop offset="1" stop-color="#DB2C6E"/>
</radialGradient>
<radialGradient id="paint34_radial_1_2731" cx="0" cy="0" r="1" gradientUnits="userSpaceOnUse" gradientTransform="translate(64.6161 34.1495) rotate(-119.23) scale(12.5724 9.39799)">
<stop stop-color="#336BAF"/>
<stop offset="1" stop-color="#336BAF" stop-opacity="0"/>
</radialGradient>
<radialGradient id="paint35_radial_1_2731" cx="0" cy="0" r="1" gradientUnits="userSpaceOnUse" gradientTransform="translate(68.7087 24.6641) rotate(-127.657) scale(8.51731 3.45081)">
<stop stop-color="#49A4D4"/>
<stop offset="1" stop-color="#49A4D4" stop-opacity="0"/>
</radialGradient>
<radialGradient id="paint36_radial_1_2731" cx="0" cy="0" r="1" gradientUnits="userSpaceOnUse" gradientTransform="translate(72.5379 33.9929) rotate(94.8501) scale(11.8794 6.6114)">
<stop stop-color="#4AB5F8"/>
<stop offset="1" stop-color="#4AB5F8" stop-opacity="0"/>
</radialGradient>
<linearGradient id="paint37_linear_1_2731" x1="51.6614" y1="28.0444" x2="64.4297" y2="24.9178" gradientUnits="userSpaceOnUse">
<stop stop-color="#4EAFF2"/>
<stop offset="1" stop-color="#4EAFF2" stop-opacity="0"/>
</linearGradient>
<linearGradient id="paint38_linear_1_2731" x1="77.6295" y1="-0.587543" x2="59.6961" y2="40.7338" gradientUnits="userSpaceOnUse">
<stop stop-color="#5BDDFF"/>
<stop offset="1" stop-color="#5BDDFF" stop-opacity="0"/>
</linearGradient>
</defs>
</svg>
