<svg width="64" height="64" viewBox="0 0 64 64" fill="none" xmlns="http://www.w3.org/2000/svg">
<path d="M63.4292 60.6842L54.0315 51.2992V15.194L49.5932 6.99186C49.2658 6.36652 48.7746 5.84294 48.1727 5.47768C47.5707 5.11242 46.8809 4.91937 46.1777 4.91937C45.4745 4.91937 44.7846 5.11242 44.1827 5.47768C43.5807 5.84294 43.0895 6.36652 42.7621 6.99186L38.594 15.2134V35.8643L3.29981 0.573602C3.02991 0.300139 2.68507 0.11364 2.30926 0.0378819C1.93346 -0.0378762 1.54372 0.00053928 1.18973 0.148231C0.835735 0.295922 0.533534 0.546197 0.321651 0.867149C0.109768 1.1881 -0.00219634 1.56519 3.26446e-05 1.95033V17.6179H4.18747V20.7203H3.26446e-05V33.1303H4.18747V36.2328H3.26446e-05V49.1274H4.18747V52.2299H3.26446e-05V62.0609C3.26446e-05 62.5752 0.203339 63.0684 0.565228 63.432C0.927116 63.7957 1.41794 64 1.92973 64H62.0591C62.4424 64.0022 62.8176 63.8897 63.137 63.6768C63.4564 63.4639 63.7055 63.1602 63.8525 62.8045C63.9995 62.4488 64.0377 62.0572 63.9623 61.6795C63.8869 61.3019 63.7013 60.9554 63.4292 60.6842ZM15.4376 48.6427V31.0749L32.94 48.6427H15.4376ZM50.1721 52.7341H42.4534V48.0222H50.1721V52.7341ZM50.1721 44.9779H42.4534V16.1636L46.197 8.85335L50.1721 16.183V44.9779Z" fill="#00FF9F"/>
</svg>
