<svg width="16" height="16" viewBox="0 0 16 16" fill="none" xmlns="http://www.w3.org/2000/svg">
<path d="M8 0C6.41775 0 4.87103 0.469192 3.55544 1.34824C2.23985 2.22729 1.21447 3.47672 0.608967 4.93853C0.00346628 6.40034 -0.15496 8.00887 0.153721 9.56072C0.462403 11.1126 1.22433 12.538 2.34315 13.6569C3.46197 14.7757 4.88743 15.5376 6.43928 15.8463C7.99113 16.155 9.59966 15.9965 11.0615 15.391C12.5233 14.7855 13.7727 13.7602 14.6518 12.4446C15.5308 11.129 16 9.58225 16 8C15.9978 5.87895 15.1542 3.84542 13.6544 2.34562C12.1546 0.845814 10.121 0.00223986 8 0ZM14.7423 7.39846C14.5464 7.38923 14.3503 7.38461 14.1538 7.38461C13.0123 7.38494 11.8758 7.53598 10.7738 7.83384C10.5052 7.0366 10.1586 6.26776 9.73923 5.53846C10.8331 4.87886 11.8233 4.06103 12.6777 3.11154C13.8633 4.24266 14.5971 5.76631 14.7423 7.39846ZM11.7138 2.34308C10.9452 3.18768 10.0568 3.91491 9.07692 4.50154C8.25629 3.34648 7.25257 2.33315 6.10539 1.50154C7.04648 1.22681 8.03603 1.15977 9.00558 1.30507C9.97513 1.45037 10.9016 1.80454 11.7208 2.34308H11.7138ZM4.74231 2.06769C5.99969 2.85953 7.09589 3.88214 7.97308 5.08154C6.43787 5.78911 4.76735 6.15497 3.07693 6.15384C2.55521 6.15358 2.03408 6.11889 1.51693 6.05C2.03151 4.3527 3.18894 2.92365 4.74231 2.06769ZM1.23077 8C1.23074 7.75226 1.24435 7.5047 1.27154 7.25846C1.86967 7.34244 2.47293 7.38459 3.07693 7.38461C5.00734 7.38643 6.9136 6.95535 8.65539 6.12308C9.03913 6.78576 9.35632 7.48481 9.60231 8.21C8.94861 8.45556 8.316 8.75399 7.71077 9.10231C6.02236 10.0777 4.57466 11.42 3.47462 13.03C2.76821 12.3963 2.20328 11.6208 1.81665 10.7541C1.43003 9.88744 1.2304 8.94901 1.23077 8ZM4.46154 13.7692C5.46028 12.2921 6.78179 11.0613 8.32616 10.17C8.84249 9.87201 9.3813 9.61482 9.93769 9.40077C10.1281 10.2457 10.2243 11.1092 10.2246 11.9754C10.225 12.8175 10.135 13.6571 9.95615 14.48C9.04202 14.7562 8.07977 14.8356 7.13272 14.7131C6.18568 14.5906 5.27531 14.2689 4.46154 13.7692ZM11.3123 13.9023C11.4073 13.2657 11.4551 12.6229 11.4554 11.9792C11.4553 10.9829 11.3404 9.99 11.1131 9.02C12.1046 8.75244 13.1269 8.61641 14.1538 8.61538C14.3487 8.61538 14.5438 8.62025 14.7392 8.63C14.6362 9.72011 14.2707 10.769 13.6739 11.6871C13.0771 12.6051 12.2668 13.3649 11.3123 13.9015V13.9023Z" fill="white"/>
</svg>
