<svg width="44" height="64" viewBox="0 0 44 64" fill="none" xmlns="http://www.w3.org/2000/svg">
<path d="M11.2005 0H21.5668V20.7412H11.2007C-2.47005 20.2066 -2.60812 0.5615 11.2005 0ZM11.2005 42.3696H21.5668V21.6284H11.2007C-2.60799 22.1899 -2.47005 41.835 11.2005 42.3696ZM32.8201 0H22.4536V20.7412H32.8201C46.6748 19.9995 46.5021 0.423375 32.8201 0ZM21.5668 53.6275V43.2567H11.2007C2.74134 43.2567 -2.60799 53.1787 3.27525 60.3052C8.88447 67.3689 21.5669 63.8472 21.5669 53.6275H21.5668ZM43.2077 31.999C43.2077 24.029 34.5239 19.0209 27.6146 23.0059C20.7053 26.9909 20.7052 37.0072 27.6146 40.9922C34.5241 44.9772 43.2077 39.969 43.2077 31.999Z" fill="#00FF9F"/>
</svg>
