<svg width="835" height="882" viewBox="0 0 835 882" fill="none" xmlns="http://www.w3.org/2000/svg">
<g opacity="0.7">
<rect x="198.262" y="190.142" width="27.0665" height="27.0665" rx="10" fill="#5E5E5E"/>
<rect x="351.864" y="696.961" width="27.0665" height="27.0665" rx="10" fill="#5E5E5E"/>
<rect x="450.656" y="418.854" width="27.0665" height="27.0665" rx="10" transform="rotate(-90 450.656 418.854)" fill="#5E5E5E"/>
<rect x="429.003" y="442.536" width="27.0664" height="27.0665" rx="10" transform="rotate(90 429.003 442.536)" fill="#5E5E5E"/>
<rect x="781.544" y="341.037" width="27.0664" height="27.0665" rx="10" transform="rotate(90 781.544 341.037)" fill="#5E5E5E"/>
<rect x="692.901" y="632.679" width="49.3963" height="49.3963" rx="10" transform="rotate(180 692.901 632.679)" fill="#8A8A8A"/>
<rect x="489.903" y="430.356" width="49.3963" height="49.3963" rx="10" transform="rotate(-90 489.903 430.356)" fill="#8A8A8A"/>
<rect x="389.757" y="431.71" width="49.3963" height="49.3963" rx="10" transform="rotate(90 389.757 431.71)" fill="#8A8A8A"/>
<rect x="742.297" y="330.211" width="49.3963" height="49.3963" rx="10" transform="rotate(90 742.297 330.211)" fill="#8A8A8A"/>
<rect x="91.3493" y="582.605" width="49.3963" height="49.3963" rx="10" transform="rotate(90 91.3493 582.605)" fill="#8A8A8A"/>
<rect x="195.555" y="288.258" width="32.4797" height="32.4797" rx="10" fill="#4F4F4F"/>
<rect x="684.105" y="573.132" width="32.4797" height="32.4797" rx="10" transform="rotate(180 684.105 573.132)" fill="#4F4F4F"/>
<rect x="548.772" y="422.236" width="33.1564" height="32.4797" rx="10" transform="rotate(-90 548.772 422.236)" fill="#4F4F4F"/>
<rect x="330.887" y="439.83" width="32.4797" height="32.4797" rx="10" transform="rotate(90 330.887 439.83)" fill="#00FF9F"/>
<rect x="32.4797" y="590.726" width="32.4797" height="32.4797" rx="10" transform="rotate(90 32.4797 590.726)" fill="#4F4F4F"/>
<rect x="192.172" y="335.624" width="39.2464" height="38.5697" rx="10" fill="#5E5E5E"/>
<rect x="687.488" y="525.766" width="39.2463" height="38.5697" rx="10" transform="rotate(180 687.488 525.766)" fill="#5E5E5E"/>
<rect x="596.139" y="424.943" width="39.2463" height="39.2464" rx="10" transform="rotate(-90 596.139 424.943)" fill="#5E5E5E"/>
<rect x="283.521" y="436.446" width="39.2463" height="39.2464" rx="10" transform="rotate(90 283.521 436.446)" fill="#5E5E5E"/>
<rect x="195.555" y="389.08" width="32.4797" height="33.1564" rx="10" fill="#5E5E5E"/>
<rect x="684.105" y="472.31" width="32.4797" height="32.4797" rx="10" transform="rotate(180 684.105 472.31)" fill="#5E5E5E"/>
<rect x="649.595" y="422.236" width="33.1564" height="33.1564" rx="10" transform="rotate(-90 649.595 422.236)" fill="#5E5E5E"/>
<rect x="230.065" y="439.83" width="32.4797" height="33.1564" rx="10" transform="rotate(90 230.065 439.83)" fill="#5E5E5E"/>
<rect x="244.275" y="186.759" width="35.1864" height="34.5097" rx="10" fill="#5E5E5E"/>
<rect x="397.877" y="693.578" width="35.1864" height="34.5097" rx="10" fill="#5E5E5E"/>
<rect x="635.385" y="675.308" width="35.1864" height="34.5097" rx="10" transform="rotate(180 635.385 675.308)" fill="#5E5E5E"/>
<rect x="446.596" y="372.841" width="35.1864" height="34.5097" rx="10" transform="rotate(-90 446.596 372.841)" fill="#5E5E5E"/>
<rect x="148.189" y="523.736" width="35.1864" height="34.5097" rx="10" transform="rotate(-90 148.189 523.736)" fill="#5E5E5E"/>
<rect x="433.063" y="489.227" width="35.1864" height="34.5097" rx="10" transform="rotate(90 433.063 489.227)" fill="#5E5E5E"/>
<rect x="533.886" y="93.3789" width="35.1864" height="34.5097" rx="10" transform="rotate(90 533.886 93.3789)" fill="#5E5E5E"/>
<rect x="243.598" y="235.479" width="37.2164" height="37.2164" rx="10" fill="#737373"/>
<rect x="397.2" y="742.298" width="37.2164" height="37.2164" rx="10" fill="#737373"/>
<rect x="495.993" y="374.193" width="37.893" height="37.2164" rx="10" transform="rotate(-90 495.993 374.193)" fill="#737373"/>
<rect x="383.667" y="487.873" width="37.2164" height="37.2164" rx="10" transform="rotate(90 383.667 487.873)" fill="#737373"/>
<rect x="736.207" y="386.374" width="37.2164" height="37.2164" rx="10" transform="rotate(90 736.207 386.374)" fill="#737373"/>
<rect x="484.489" y="92.0264" width="37.2164" height="37.2164" rx="10" transform="rotate(90 484.489 92.0264)" fill="#737373"/>
<rect x="629.295" y="569.072" width="23.6831" height="24.3598" rx="10" transform="rotate(180 629.295 569.072)" fill="#4F4F4F"/>
<rect x="552.832" y="367.427" width="24.3598" height="24.3598" rx="10" transform="rotate(-90 552.832 367.427)" fill="#4F4F4F"/>
<rect x="326.827" y="494.64" width="23.6831" height="24.3598" rx="10" transform="rotate(90 326.827 494.64)" fill="#4F4F4F"/>
<rect x="642.152" y="531.179" width="48.7196" height="48.7196" rx="10" transform="rotate(180 642.152 531.179)" fill="#8F8F8F"/>
<rect x="590.725" y="379.607" width="48.7196" height="49.3963" rx="10" transform="rotate(-90 590.725 379.607)" fill="#8F8F8F"/>
<rect x="288.934" y="482.459" width="48.7196" height="49.3963" rx="10" transform="rotate(90 288.934 482.459)" fill="#8F8F8F"/>
<rect x="244.275" y="388.403" width="35.1864" height="34.5097" rx="10" fill="#737373"/>
<rect x="635.385" y="473.663" width="35.1864" height="34.5097" rx="10" transform="rotate(180 635.385 473.663)" fill="#737373"/>
<rect x="648.242" y="372.841" width="35.1864" height="35.1864" rx="10" transform="rotate(-90 648.242 372.841)" fill="#737373"/>
<rect x="231.418" y="489.227" width="35.1864" height="35.1864" rx="10" transform="rotate(90 231.418 489.227)" fill="#737373"/>
<rect x="583.959" y="675.308" width="33.8331" height="34.5097" rx="10" transform="rotate(180 583.959 675.308)" fill="#5C5C5C"/>
<rect x="447.273" y="321.414" width="33.8331" height="33.8331" rx="10" transform="rotate(-90 447.273 321.414)" fill="#5C5C5C"/>
<rect x="148.865" y="472.31" width="33.8331" height="33.8331" rx="10" transform="rotate(-90 148.865 472.31)" fill="#5C5C5C"/>
<rect x="432.387" y="539.976" width="33.8331" height="33.8331" rx="10" transform="rotate(90 432.387 539.976)" fill="#5C5C5C"/>
<rect x="784.927" y="438.477" width="33.8331" height="33.8331" rx="10" transform="rotate(90 784.927 438.477)" fill="#5C5C5C"/>
<rect x="533.209" y="144.129" width="33.8331" height="33.8331" rx="10" transform="rotate(90 533.209 144.129)" fill="#5C5C5C"/>
<rect x="576.515" y="617.115" width="18.9465" height="18.9465" rx="9.47326" transform="rotate(180 576.515 617.115)" fill="#4F4F4F"/>
<rect x="504.789" y="313.971" width="18.2699" height="18.9465" rx="9.13493" transform="rotate(-90 504.789 313.971)" fill="#4F4F4F"/>
<rect x="374.87" y="548.096" width="18.2699" height="18.9465" rx="9.13493" transform="rotate(90 374.87 548.096)" fill="#4F4F4F"/>
<rect x="727.411" y="446.597" width="18.2699" height="18.9465" rx="9.13493" transform="rotate(90 727.411 446.597)" fill="#4F4F4F"/>
<rect x="294.348" y="286.904" width="35.863" height="35.863" rx="10" fill="#737373"/>
<rect x="447.95" y="793.724" width="35.863" height="35.863" rx="10" fill="#737373"/>
<rect x="546.742" y="322.768" width="35.863" height="35.863" rx="10" transform="rotate(-90 546.742 322.768)" fill="#737373"/>
<rect x="332.917" y="539.299" width="35.863" height="35.8631" rx="10" transform="rotate(90 332.917 539.299)" fill="#737373"/>
<rect x="298.408" y="341.037" width="28.4198" height="28.4198" rx="10" fill="#4F4F4F"/>
<rect x="452.01" y="847.856" width="28.4198" height="28.4198" rx="10" fill="#4F4F4F"/>
<rect y="491.933" width="28.4198" height="28.4198" rx="10" fill="#1192C4"/>
<rect x="581.252" y="521.029" width="28.4198" height="28.4198" rx="10" transform="rotate(180 581.252 521.029)" fill="#4F4F4F"/>
<rect x="600.875" y="319.384" width="29.0964" height="29.0964" rx="10" transform="rotate(-90 600.875 319.384)" fill="#4F4F4F"/>
<rect x="278.784" y="542.683" width="29.0964" height="29.0964" rx="10" transform="rotate(90 278.784 542.683)" fill="#4F4F4F"/>
<rect x="303.144" y="396.523" width="18.9465" height="18.9465" rx="9.47326" fill="#424242"/>
<rect x="4.73663" y="547.419" width="18.9465" height="18.9465" rx="9.47326" fill="#424242"/>
<rect x="576.515" y="465.543" width="18.9465" height="18.9465" rx="9.47326" transform="rotate(180 576.515 465.543)" fill="#424242"/>
<rect x="656.361" y="313.971" width="18.2699" height="18.9465" rx="9.13493" transform="rotate(-90 656.361 313.971)" fill="#1126C4"/>
<rect x="223.298" y="548.096" width="18.2699" height="18.9465" rx="9.13493" transform="rotate(90 223.298 548.096)" fill="#424242"/>
<rect x="343.744" y="184.052" width="38.5697" height="39.2464" rx="10" fill="#5E5E5E"/>
<rect x="497.346" y="690.871" width="38.5697" height="39.2464" rx="10" fill="#5E5E5E"/>
<rect x="535.916" y="677.338" width="38.5697" height="38.5697" rx="10" transform="rotate(180 535.916 677.338)" fill="#5E5E5E"/>
<rect x="444.566" y="273.371" width="38.5697" height="39.2464" rx="10" transform="rotate(-90 444.566 273.371)" fill="#5E5E5E"/>
<rect x="435.093" y="588.019" width="39.2463" height="39.2464" rx="10" transform="rotate(90 435.093 588.019)" fill="#5E5E5E"/>
<rect x="787.634" y="486.52" width="39.2463" height="39.2464" rx="10" transform="rotate(90 787.634 486.52)" fill="#5E5E5E"/>
<rect x="347.804" y="238.861" width="30.4498" height="30.4498" rx="10" fill="#5C5C5C"/>
<rect x="501.406" y="745.681" width="30.4498" height="30.4498" rx="10" fill="#5C5C5C"/>
<rect x="499.376" y="269.312" width="30.4498" height="30.4498" rx="10" transform="rotate(-90 499.376 269.312)" fill="#5C5C5C"/>
<rect x="380.284" y="592.078" width="30.4498" height="30.4498" rx="10" transform="rotate(90 380.284 592.078)" fill="#5C5C5C"/>
<rect x="732.824" y="490.579" width="30.4498" height="30.4498" rx="10" transform="rotate(90 732.824 490.579)" fill="#5C5C5C"/>
<rect x="357.277" y="298.407" width="12.1799" height="12.1799" rx="6.08995" fill="#424242"/>
<rect x="510.879" y="805.227" width="12.1799" height="12.1799" rx="6.08995" fill="#424242"/>
<rect x="522.383" y="562.982" width="12.1799" height="12.1799" rx="6.08995" transform="rotate(180 522.383 562.982)" fill="#A711C4"/>
<rect x="623.205" y="167.136" width="12.1799" height="12.1799" rx="6.08995" transform="rotate(180 623.205 167.136)" fill="#424242"/>
<rect x="558.922" y="259.838" width="12.1799" height="12.1799" rx="6.08995" transform="rotate(-90 558.922 259.838)" fill="#424242"/>
<rect x="320.737" y="601.552" width="12.1799" height="12.1799" rx="6.08995" transform="rotate(90 320.737 601.552)" fill="#424242"/>
<rect x="343.067" y="334.947" width="39.923" height="39.923" rx="10" fill="#737373"/>
<rect x="496.669" y="841.767" width="39.923" height="39.923" rx="10" fill="#737373"/>
<rect x="44.6596" y="485.843" width="39.923" height="39.923" rx="10" fill="#737373"/>
<rect x="536.592" y="526.442" width="39.923" height="39.923" rx="10" transform="rotate(180 536.592 526.442)" fill="#737373"/>
<rect x="637.415" y="130.596" width="39.923" height="39.923" rx="10" transform="rotate(180 637.415 130.596)" fill="#737373"/>
<rect x="595.462" y="274.048" width="39.923" height="39.923" rx="10" transform="rotate(-90 595.462 274.048)" fill="#737373"/>
<rect x="284.198" y="587.342" width="39.923" height="39.923" rx="10" transform="rotate(90 284.198 587.342)" fill="#737373"/>
<rect x="347.804" y="390.434" width="30.4498" height="30.4498" rx="10" fill="#5C5C5C"/>
<rect x="49.3963" y="541.329" width="30.4498" height="30.4498" rx="10" fill="#5C5C5C"/>
<rect x="531.856" y="470.956" width="30.4498" height="30.4498" rx="10" transform="rotate(180 531.856 470.956)" fill="#5C5C5C"/>
<rect x="650.948" y="269.312" width="30.4498" height="30.4498" rx="10" transform="rotate(-90 650.948 269.312)" fill="#5C5C5C"/>
<rect x="228.712" y="592.078" width="30.4498" height="30.4498" rx="10" transform="rotate(90 228.712 592.078)" fill="#5C5C5C"/>
<rect x="405.997" y="195.555" width="15.5632" height="15.5632" rx="7.7816" fill="#424242"/>
<rect x="456.07" y="211.118" width="15.5632" height="16.2399" rx="7.7816" transform="rotate(-90 456.07 211.118)" fill="#424242"/>
<rect x="423.59" y="650.271" width="15.5632" height="16.2399" rx="7.7816" transform="rotate(90 423.59 650.271)" fill="#424242"/>
<rect x="776.13" y="548.772" width="15.5632" height="16.2399" rx="7.7816" transform="rotate(90 776.13 548.772)" fill="#424242"/>
<rect x="400.583" y="241.568" width="25.7131" height="25.0365" rx="10" fill="#545454"/>
<rect x="479.076" y="620.498" width="25.7131" height="25.7131" rx="10" transform="rotate(180 479.076 620.498)" fill="#545454"/>
<rect x="831.617" y="518.999" width="25.7131" height="25.7131" rx="10" transform="rotate(180 831.617 518.999)" fill="#545454"/>
<rect x="502.083" y="216.531" width="25.7131" height="25.0365" rx="10" transform="rotate(-90 502.083 216.531)" fill="#545454"/>
<rect x="377.577" y="644.858" width="25.7131" height="25.0365" rx="10" transform="rotate(90 377.577 644.858)" fill="#545454"/>
<rect x="730.117" y="543.359" width="25.7131" height="25.0365" rx="10" transform="rotate(90 730.117 543.359)" fill="#545454"/>
<rect x="397.2" y="288.935" width="32.4797" height="31.8031" rx="10" fill="#5C5C5C"/>
<rect x="482.459" y="573.132" width="32.4797" height="31.8031" rx="10" transform="rotate(180 482.459 573.132)" fill="#5C5C5C"/>
<rect x="583.282" y="177.285" width="32.4797" height="31.8031" rx="10" transform="rotate(180 583.282 177.285)" fill="#5C5C5C"/>
<rect x="548.772" y="219.915" width="32.4797" height="32.4797" rx="10" transform="rotate(-90 548.772 219.915)" fill="#5C5C5C"/>
<rect x="330.887" y="642.151" width="32.4797" height="32.4797" rx="10" transform="rotate(90 330.887 642.151)" fill="#5C5C5C"/>
<rect x="397.2" y="339.007" width="32.4797" height="32.4797" rx="10" fill="#4F4F4F"/>
<rect x="482.459" y="523.06" width="32.4797" height="32.4797" rx="10" transform="rotate(180 482.459 523.06)" fill="#4F4F4F"/>
<rect x="835" y="421.56" width="32.4797" height="32.4797" rx="10" transform="rotate(180 835 421.56)" fill="#4F4F4F"/>
<rect x="583.282" y="127.212" width="32.4797" height="32.4797" rx="10" transform="rotate(180 583.282 127.212)" fill="#4F4F4F"/>
<rect x="599.522" y="219.915" width="32.4797" height="31.8031" rx="10" transform="rotate(-90 599.522 219.915)" fill="#4F4F4F"/>
<rect x="280.138" y="642.151" width="32.4797" height="31.8031" rx="10" transform="rotate(90 280.138 642.151)" fill="#4F4F4F"/>
<rect x="403.29" y="395.847" width="20.2998" height="20.2998" rx="10" fill="#424242"/>
<rect x="104.883" y="546.742" width="20.2998" height="20.2998" rx="10" fill="#424242"/>
<rect x="504.113" width="20.2998" height="20.2998" rx="10" fill="#424242"/>
<rect x="476.37" y="466.22" width="20.2998" height="20.2998" rx="10" transform="rotate(180 476.37 466.22)" fill="#424242"/>
<rect x="577.192" y="70.373" width="20.2998" height="20.2998" rx="10" transform="rotate(180 577.192 70.373)" fill="#424242"/>
<rect x="655.685" y="213.825" width="20.2998" height="20.2998" rx="10" transform="rotate(-90 655.685 213.825)" fill="#424242"/>
<rect x="223.975" y="648.241" width="20.2998" height="20.2998" rx="10" transform="rotate(90 223.975 648.241)" fill="#424242"/>
</g>
</svg>
