<svg width="835" height="882" viewBox="0 0 835 882" fill="none" xmlns="http://www.w3.org/2000/svg">
<g opacity="0.7">
<rect width="27.0665" height="27.0665" rx="4" transform="matrix(-1 0 0 1 636.738 190.143)" fill="#5E5E5E"/>
<rect width="27.0665" height="27.0665" rx="4" transform="matrix(-1 0 0 1 483.136 696.961)" fill="#5E5E5E"/>
<rect width="27.0665" height="27.0665" rx="4" transform="matrix(4.37114e-08 -1 -1 -4.37114e-08 384.344 418.854)" fill="#5E5E5E"/>
<rect width="27.0664" height="27.0665" rx="4" transform="matrix(-1.31134e-07 1 1 1.31134e-07 405.997 442.537)" fill="#5E5E5E"/>
<rect width="27.0664" height="27.0665" rx="4" transform="matrix(-1.31134e-07 1 1 1.31134e-07 53.4562 341.037)" fill="#5E5E5E"/>
<rect width="49.3963" height="49.3963" rx="4" transform="matrix(1 8.74228e-08 8.74228e-08 -1 142.099 632.678)" fill="#8A8A8A"/>
<rect width="49.3963" height="49.3963" rx="4" transform="matrix(4.37114e-08 -1 -1 -4.37114e-08 345.097 430.355)" fill="#8A8A8A"/>
<rect width="49.3963" height="49.3963" rx="4" transform="matrix(-1.31134e-07 1 1 1.31134e-07 445.243 431.711)" fill="#8A8A8A"/>
<rect width="49.3963" height="49.3963" rx="4" transform="matrix(-1.31134e-07 1 1 1.31134e-07 92.7026 330.211)" fill="#D600FF"/>
<rect width="49.3963" height="49.3963" rx="4" transform="matrix(-1.31134e-07 1 1 1.31134e-07 743.651 582.605)" fill="#8A8A8A"/>
<rect width="32.4797" height="32.4797" rx="4" transform="matrix(-1 0 0 1 639.445 288.258)" fill="#4F4F4F"/>
<rect width="32.4797" height="32.4797" rx="4" transform="matrix(1 8.74228e-08 8.74228e-08 -1 150.895 573.133)" fill="#4F4F4F"/>
<rect width="33.1564" height="32.4797" rx="4" transform="matrix(4.37114e-08 -1 -1 -4.37114e-08 286.228 422.236)" fill="#4F4F4F"/>
<rect width="32.4797" height="32.4797" rx="4" transform="matrix(-1.31134e-07 1 1 1.31134e-07 504.113 439.83)" fill="#4F4F4F"/>
<rect width="32.4797" height="32.4797" rx="4" transform="matrix(-1.31134e-07 1 1 1.31134e-07 802.52 590.725)" fill="#4F4F4F"/>
<rect width="39.2464" height="38.5697" rx="4" transform="matrix(-1 0 0 1 642.828 335.625)" fill="#5E5E5E"/>
<rect width="39.2463" height="38.5697" rx="4" transform="matrix(1 8.74228e-08 8.74228e-08 -1 147.512 525.766)" fill="#5E5E5E"/>
<rect width="39.2463" height="39.2464" rx="4" transform="matrix(4.37114e-08 -1 -1 -4.37114e-08 238.861 424.943)" fill="#5E5E5E"/>
<rect width="39.2463" height="39.2464" rx="4" transform="matrix(-1.31134e-07 1 1 1.31134e-07 551.479 436.447)" fill="#5E5E5E"/>
<rect width="32.4797" height="33.1564" rx="4" transform="matrix(-1 0 0 1 639.445 389.08)" fill="#5E5E5E"/>
<rect width="32.4797" height="32.4797" rx="4" transform="matrix(1 8.74228e-08 8.74228e-08 -1 150.895 472.309)" fill="#5E5E5E"/>
<rect width="33.1564" height="33.1564" rx="4" transform="matrix(4.37114e-08 -1 -1 -4.37114e-08 185.405 422.236)" fill="#5E5E5E"/>
<rect width="32.4797" height="33.1564" rx="4" transform="matrix(-1.31134e-07 1 1 1.31134e-07 604.935 439.83)" fill="#5E5E5E"/>
<rect width="35.1864" height="34.5097" rx="4" transform="matrix(-1 0 0 1 590.725 186.758)" fill="#5E5E5E"/>
<rect width="35.1864" height="34.5097" rx="4" transform="matrix(-1 0 0 1 437.123 693.578)" fill="#5E5E5E"/>
<rect width="35.1864" height="34.5097" rx="4" transform="matrix(1 8.74228e-08 8.74228e-08 -1 199.615 675.308)" fill="#5E5E5E"/>
<rect width="35.1864" height="34.5097" rx="4" transform="matrix(4.37114e-08 -1 -1 -4.37114e-08 388.404 372.84)" fill="#5E5E5E"/>
<rect width="35.1864" height="34.5097" rx="4" transform="matrix(4.37114e-08 -1 -1 -4.37114e-08 686.811 523.736)" fill="#5E5E5E"/>
<rect width="35.1864" height="34.5097" rx="4" transform="matrix(-1.31134e-07 1 1 1.31134e-07 401.937 489.227)" fill="#5E5E5E"/>
<rect width="35.1864" height="34.5097" rx="4" transform="matrix(-1.31134e-07 1 1 1.31134e-07 301.114 93.3789)" fill="#5E5E5E"/>
<rect width="37.2164" height="37.2164" rx="4" transform="matrix(-1 0 0 1 591.402 235.479)" fill="#737373"/>
<rect width="37.2164" height="37.2164" rx="4" transform="matrix(-1 0 0 1 437.8 742.297)" fill="#737373"/>
<rect width="37.893" height="37.2164" rx="4" transform="matrix(4.37114e-08 -1 -1 -4.37114e-08 339.007 374.193)" fill="#737373"/>
<rect width="37.2164" height="37.2164" rx="4" transform="matrix(-1.31134e-07 1 1 1.31134e-07 451.333 487.873)" fill="#737373"/>
<rect width="37.2164" height="37.2164" rx="4" transform="matrix(-1.31134e-07 1 1 1.31134e-07 98.7925 386.373)" fill="#737373"/>
<rect width="37.2164" height="37.2164" rx="4" transform="matrix(-1.31134e-07 1 1 1.31134e-07 350.51 92.0254)" fill="#737373"/>
<rect width="23.6831" height="24.3598" rx="4" transform="matrix(1 8.74228e-08 8.74228e-08 -1 205.705 569.072)" fill="#4F4F4F"/>
<rect width="24.3598" height="24.3598" rx="4" transform="matrix(4.37114e-08 -1 -1 -4.37114e-08 282.168 367.428)" fill="#4F4F4F"/>
<rect width="23.6831" height="24.3598" rx="4" transform="matrix(-1.31134e-07 1 1 1.31134e-07 508.173 494.639)" fill="#4F4F4F"/>
<rect width="48.7196" height="48.7196" rx="4" transform="matrix(1 8.74228e-08 8.74228e-08 -1 192.848 531.18)" fill="#8F8F8F"/>
<rect width="48.7196" height="49.3963" rx="4" transform="matrix(4.37114e-08 -1 -1 -4.37114e-08 244.275 379.607)" fill="#8F8F8F"/>
<rect width="48.7196" height="49.3963" rx="4" transform="matrix(-1.31134e-07 1 1 1.31134e-07 546.066 482.459)" fill="#8F8F8F"/>
<rect width="35.1864" height="34.5097" rx="4" transform="matrix(-1 0 0 1 590.725 388.404)" fill="#737373"/>
<rect width="35.1864" height="34.5097" rx="4" transform="matrix(1 8.74228e-08 8.74228e-08 -1 199.615 473.662)" fill="#737373"/>
<rect width="35.1864" height="35.1864" rx="4" transform="matrix(4.37114e-08 -1 -1 -4.37114e-08 186.758 372.84)" fill="#737373"/>
<rect width="35.1864" height="35.1864" rx="4" transform="matrix(-1.31134e-07 1 1 1.31134e-07 603.582 489.227)" fill="#737373"/>
<rect width="33.8331" height="34.5097" rx="4" transform="matrix(1 8.74228e-08 8.74228e-08 -1 251.041 675.308)" fill="#5C5C5C"/>
<rect width="33.8331" height="33.8331" rx="4" transform="matrix(4.37114e-08 -1 -1 -4.37114e-08 387.727 321.414)" fill="#5C5C5C"/>
<rect width="33.8331" height="33.8331" rx="4" transform="matrix(4.37114e-08 -1 -1 -4.37114e-08 686.135 472.309)" fill="#00B8FF"/>
<rect width="33.8331" height="33.8331" rx="4" transform="matrix(-1.31134e-07 1 1 1.31134e-07 402.614 539.977)" fill="#5C5C5C"/>
<rect width="33.8331" height="33.8331" rx="4" transform="matrix(-1.31134e-07 1 1 1.31134e-07 50.0729 438.477)" fill="#5C5C5C"/>
<rect width="33.8331" height="33.8331" rx="4" transform="matrix(-1.31134e-07 1 1 1.31134e-07 301.791 144.129)" fill="#5C5C5C"/>
<rect width="18.9465" height="18.9465" rx="4" transform="matrix(1 8.74228e-08 8.74228e-08 -1 258.485 617.115)" fill="#4F4F4F"/>
<rect width="18.2699" height="18.9465" rx="4" transform="matrix(4.37114e-08 -1 -1 -4.37114e-08 330.211 313.971)" fill="#4F4F4F"/>
<rect width="18.2699" height="18.9465" rx="4" transform="matrix(-1.31134e-07 1 1 1.31134e-07 460.13 548.096)" fill="#001EFF"/>
<rect width="18.2699" height="18.9465" rx="4" transform="matrix(-1.31134e-07 1 1 1.31134e-07 107.589 446.596)" fill="#4F4F4F"/>
<rect width="35.863" height="35.863" rx="4" transform="matrix(-1 0 0 1 540.652 286.904)" fill="#737373"/>
<rect width="35.863" height="35.863" rx="4" transform="matrix(-1 0 0 1 387.05 793.724)" fill="#737373"/>
<rect width="35.863" height="35.863" rx="4" transform="matrix(4.37114e-08 -1 -1 -4.37114e-08 288.258 322.768)" fill="#737373"/>
<rect width="35.863" height="35.8631" rx="4" transform="matrix(-1.31134e-07 1 1 1.31134e-07 502.083 539.299)" fill="#737373"/>
<rect width="28.4198" height="28.4198" rx="4" transform="matrix(-1 0 0 1 536.592 341.037)" fill="#4F4F4F"/>
<rect width="28.4198" height="28.4198" rx="4" transform="matrix(-1 0 0 1 382.99 847.856)" fill="#4F4F4F"/>
<rect width="28.4198" height="28.4198" rx="4" transform="matrix(-1 0 0 1 835 491.934)" fill="#4F4F4F"/>
<rect width="28.4198" height="28.4198" rx="4" transform="matrix(1 8.74228e-08 8.74228e-08 -1 253.748 521.029)" fill="#4F4F4F"/>
<rect width="29.0964" height="29.0964" rx="4" transform="matrix(4.37114e-08 -1 -1 -4.37114e-08 234.125 319.385)" fill="#4F4F4F"/>
<rect width="29.0964" height="29.0964" rx="4" transform="matrix(-1.31134e-07 1 1 1.31134e-07 556.216 542.682)" fill="#4F4F4F"/>
<rect width="18.9465" height="18.9465" rx="4" transform="matrix(-1 0 0 1 531.856 396.523)" fill="#424242"/>
<rect width="18.9465" height="18.9465" rx="4" transform="matrix(-1 0 0 1 830.263 547.418)" fill="#424242"/>
<rect width="18.9465" height="18.9465" rx="4" transform="matrix(1 8.74228e-08 8.74228e-08 -1 258.485 465.543)" fill="#424242"/>
<rect width="18.2699" height="18.9465" rx="4" transform="matrix(4.37114e-08 -1 -1 -4.37114e-08 178.639 313.971)" fill="#424242"/>
<rect width="18.2699" height="18.9465" rx="4" transform="matrix(-1.31134e-07 1 1 1.31134e-07 611.702 548.096)" fill="#424242"/>
<rect width="38.5697" height="39.2464" rx="4" transform="matrix(-1 0 0 1 491.256 184.051)" fill="#5E5E5E"/>
<rect width="38.5697" height="39.2464" rx="4" transform="matrix(-1 0 0 1 337.654 690.871)" fill="#5E5E5E"/>
<rect width="38.5697" height="38.5697" rx="4" transform="matrix(1 8.74228e-08 8.74228e-08 -1 299.084 677.338)" fill="#5E5E5E"/>
<rect width="38.5697" height="39.2464" rx="4" transform="matrix(4.37114e-08 -1 -1 -4.37114e-08 390.434 273.371)" fill="#5E5E5E"/>
<rect width="39.2463" height="39.2464" rx="4" transform="matrix(-1.31134e-07 1 1 1.31134e-07 399.907 588.02)" fill="#5E5E5E"/>
<rect width="39.2463" height="39.2464" rx="4" transform="matrix(-1.31134e-07 1 1 1.31134e-07 47.3663 486.52)" fill="#5E5E5E"/>
<rect width="30.4498" height="30.4498" rx="4" transform="matrix(-1 0 0 1 487.196 238.861)" fill="#5C5C5C"/>
<rect width="30.4498" height="30.4498" rx="4" transform="matrix(-1 0 0 1 333.594 745.681)" fill="#5C5C5C"/>
<rect width="30.4498" height="30.4498" rx="4" transform="matrix(4.37114e-08 -1 -1 -4.37114e-08 335.624 269.311)" fill="#5C5C5C"/>
<rect width="30.4498" height="30.4498" rx="4" transform="matrix(-1.31134e-07 1 1 1.31134e-07 454.716 592.078)" fill="#5C5C5C"/>
<rect width="30.4498" height="30.4498" rx="4" transform="matrix(-1.31134e-07 1 1 1.31134e-07 102.176 490.58)" fill="#5C5C5C"/>
<rect width="12.1799" height="12.1799" rx="4" transform="matrix(-1 0 0 1 477.723 298.408)" fill="#00FF9F"/>
<rect width="12.1799" height="12.1799" rx="4" transform="matrix(-1 0 0 1 324.121 805.227)" fill="#424242"/>
<rect width="12.1799" height="12.1799" rx="4" transform="matrix(1 8.74228e-08 8.74228e-08 -1 312.617 562.982)" fill="#424242"/>
<rect width="12.1799" height="12.1799" rx="4" transform="matrix(1 8.74228e-08 8.74228e-08 -1 211.795 167.135)" fill="#424242"/>
<rect width="12.1799" height="12.1799" rx="4" transform="matrix(4.37114e-08 -1 -1 -4.37114e-08 276.078 259.838)" fill="#424242"/>
<rect width="12.1799" height="12.1799" rx="4" transform="matrix(-1.31134e-07 1 1 1.31134e-07 514.263 601.551)" fill="#424242"/>
<rect width="39.923" height="39.923" rx="4" transform="matrix(-1 0 0 1 491.933 334.947)" fill="#737373"/>
<rect width="39.923" height="39.923" rx="4" transform="matrix(-1 0 0 1 338.331 841.767)" fill="#737373"/>
<rect width="39.923" height="39.923" rx="4" transform="matrix(-1 0 0 1 790.34 485.844)" fill="#737373"/>
<rect width="39.923" height="39.923" rx="4" transform="matrix(1 8.74228e-08 8.74228e-08 -1 298.408 526.441)" fill="#737373"/>
<rect width="39.923" height="39.923" rx="4" transform="matrix(1 8.74228e-08 8.74228e-08 -1 197.585 130.596)" fill="#737373"/>
<rect width="39.923" height="39.923" rx="4" transform="matrix(4.37114e-08 -1 -1 -4.37114e-08 239.538 274.047)" fill="#737373"/>
<rect width="39.923" height="39.923" rx="4" transform="matrix(-1.31134e-07 1 1 1.31134e-07 550.802 587.342)" fill="#737373"/>
<rect width="30.4498" height="30.4498" rx="4" transform="matrix(-1 0 0 1 487.196 390.434)" fill="#5C5C5C"/>
<rect width="30.4498" height="30.4498" rx="4" transform="matrix(-1 0 0 1 785.604 541.328)" fill="#5C5C5C"/>
<rect width="30.4498" height="30.4498" rx="4" transform="matrix(1 8.74228e-08 8.74228e-08 -1 303.144 470.957)" fill="#5C5C5C"/>
<rect width="30.4498" height="30.4498" rx="4" transform="matrix(4.37114e-08 -1 -1 -4.37114e-08 184.052 269.311)" fill="#5C5C5C"/>
<rect width="30.4498" height="30.4498" rx="4" transform="matrix(-1.31134e-07 1 1 1.31134e-07 606.288 592.078)" fill="#5C5C5C"/>
<rect width="15.5632" height="15.5632" rx="4" transform="matrix(-1 0 0 1 429.003 195.555)" fill="#424242"/>
<rect width="15.5632" height="16.2399" rx="4" transform="matrix(4.37114e-08 -1 -1 -4.37114e-08 378.93 211.119)" fill="#424242"/>
<rect width="15.5632" height="16.2399" rx="4" transform="matrix(-1.31134e-07 1 1 1.31134e-07 411.41 650.271)" fill="#424242"/>
<rect width="15.5632" height="16.2399" rx="4" transform="matrix(-1.31134e-07 1 1 1.31134e-07 58.8695 548.771)" fill="#BD00FF"/>
<rect width="25.7131" height="25.0365" rx="4" transform="matrix(-1 0 0 1 434.417 241.568)" fill="#545454"/>
<rect width="25.7131" height="25.7131" rx="4" transform="matrix(1 8.74228e-08 8.74228e-08 -1 355.924 620.498)" fill="#545454"/>
<rect width="25.7131" height="25.7131" rx="4" transform="matrix(1 8.74228e-08 8.74228e-08 -1 3.3833 519)" fill="#545454"/>
<rect width="25.7131" height="25.0365" rx="4" transform="matrix(4.37114e-08 -1 -1 -4.37114e-08 332.917 216.531)" fill="#545454"/>
<rect width="25.7131" height="25.0365" rx="4" transform="matrix(-1.31134e-07 1 1 1.31134e-07 457.423 644.858)" fill="#545454"/>
<rect width="25.7131" height="25.0365" rx="4" transform="matrix(-1.31134e-07 1 1 1.31134e-07 104.883 543.359)" fill="#545454"/>
<rect width="32.4797" height="31.8031" rx="4" transform="matrix(-1 0 0 1 437.8 288.934)" fill="#5C5C5C"/>
<rect width="32.4797" height="31.8031" rx="4" transform="matrix(1 8.74228e-08 8.74228e-08 -1 352.541 573.133)" fill="#5C5C5C"/>
<rect width="32.4797" height="31.8031" rx="4" transform="matrix(1 8.74228e-08 8.74228e-08 -1 251.718 177.285)" fill="#5C5C5C"/>
<rect width="32.4797" height="32.4797" rx="4" transform="matrix(4.37114e-08 -1 -1 -4.37114e-08 286.228 219.914)" fill="#5C5C5C"/>
<rect width="32.4797" height="32.4797" rx="4" transform="matrix(-1.31134e-07 1 1 1.31134e-07 504.113 642.151)" fill="#5C5C5C"/>
<rect width="32.4797" height="32.4797" rx="4" transform="matrix(-1 0 0 1 437.8 339.008)" fill="#4F4F4F"/>
<rect width="32.4797" height="32.4797" rx="4" transform="matrix(1 8.74228e-08 8.74228e-08 -1 352.541 523.059)" fill="#4F4F4F"/>
<rect width="32.4797" height="32.4797" rx="4" transform="matrix(1 8.74228e-08 8.74228e-08 -1 0 421.561)" fill="#4F4F4F"/>
<rect width="32.4797" height="32.4797" rx="4" transform="matrix(1 8.74228e-08 8.74228e-08 -1 251.718 127.213)" fill="#4F4F4F"/>
<rect width="32.4797" height="31.8031" rx="4" transform="matrix(4.37114e-08 -1 -1 -4.37114e-08 235.478 219.914)" fill="#4F4F4F"/>
<rect width="32.4797" height="31.8031" rx="4" transform="matrix(-1.31134e-07 1 1 1.31134e-07 554.862 642.151)" fill="#4F4F4F"/>
<rect width="20.2998" height="20.2998" rx="4" transform="matrix(-1 0 0 1 431.71 395.848)" fill="#424242"/>
<rect width="20.2998" height="20.2998" rx="4" transform="matrix(-1 0 0 1 730.118 546.742)" fill="#424242"/>
<rect width="20.2998" height="20.2998" rx="4" transform="matrix(-1 0 0 1 330.887 0)" fill="#424242"/>
<rect width="20.2998" height="20.2998" rx="4" transform="matrix(1 8.74228e-08 8.74228e-08 -1 358.63 466.219)" fill="#424242"/>
<rect width="20.2998" height="20.2998" rx="4" transform="matrix(1 8.74228e-08 8.74228e-08 -1 257.808 70.373)" fill="#424242"/>
<rect width="20.2998" height="20.2998" rx="4" transform="matrix(4.37114e-08 -1 -1 -4.37114e-08 179.315 213.824)" fill="#424242"/>
<rect width="20.2998" height="20.2998" rx="4" transform="matrix(-1.31134e-07 1 1 1.31134e-07 611.025 648.241)" fill="#424242"/>
</g>
</svg>
