<svg width="195" height="102" viewBox="0 0 195 102" fill="none" xmlns="http://www.w3.org/2000/svg">
<path d="M120.339 16.0622H120.331C119.617 14.4962 118.918 13.6035 118.765 13.4937C118.569 13.362 118.416 13.4498 118.27 13.6108C113.346 20.987 110.702 28.9925 109.478 35.7905C109.194 37.3638 108.932 38.9957 108.779 40.4592C108.648 41.9154 108.386 41.5715 108.429 40.547C108.495 38.9664 108.553 37.9639 108.713 36.515C108.713 36.493 108.91 34.7222 108.99 34.1953C110.877 20.2259 116.42 12.7839 116.42 12.7839C116.427 12.7693 116.442 12.7546 116.449 12.74C116.573 12.5424 116.478 12.2278 116.201 12.1619C115.451 11.9717 114.388 11.8765 113.608 11.8765C112.545 11.8765 111.481 12.0009 110.44 12.2131C101.83 13.9328 94.1749 22.3993 91.174 25.2385C89.1418 27.1557 87.1897 29.1754 85.325 31.2682C83.6133 33.1855 81.9817 35.1832 80.4448 37.2541C80.1244 37.6858 79.8039 38.1175 79.4834 38.5493C79.3596 38.7176 78.1796 40.3201 76.7811 42.2081C75.8997 39.0176 75.4117 35.5783 75.4117 31.9927C75.3971 15.3158 85.8058 1.80015 98.6399 1.80015C103.105 1.80015 107.271 3.4393 110.811 6.27122C110.622 6.32244 110.447 6.37367 110.294 6.41757L110.199 6.43953C110.199 6.43953 110.134 6.46148 110.097 6.4688L109.821 6.55661C104.86 8.07136 99.412 11.2545 94.1385 15.9817C93.7015 15.85 93.2353 15.7695 92.7327 15.7402C92.6672 15.7402 92.5943 15.7329 92.5288 15.7329C89.7245 15.6524 86.5342 17.2111 84.6185 18.799C83.9557 19.3478 83.6279 19.8674 83.4676 20.2991V22.6042C83.81 22.3041 84.9536 21.126 86.2428 20.2991C87.9327 19.2161 89.8337 18.5282 91.5964 18.4038C90.7224 19.282 89.8556 20.204 89.0034 21.1626C86.4613 22.0261 84.4218 23.7164 83.4749 24.9312V22.5456C83.4749 22.5456 83.4312 22.5603 83.4167 22.5603C82.4843 22.853 80.1535 24.3019 79.833 25.4361C79.7383 25.7654 79.7237 26.4532 79.7165 26.8118C79.7165 26.8996 79.7165 26.9728 79.7165 27.0094C79.7165 27.1191 79.7165 27.9387 79.7165 27.9387C79.7165 27.9387 81.45 25.5019 83.4822 24.9531L83.4968 27.1631C82.1274 27.6387 80.3356 29.351 80.0078 29.973C79.935 30.1121 80.0297 32.4464 80.0879 33.6318C79.0682 35.41 78.0922 37.2614 77.1671 39.2006C78.4345 37.3492 79.8184 35.5564 80.8964 34.1148C82.2148 32.3659 83.4822 30.595 84.786 28.8388C85.3687 28.0631 85.9587 27.2875 86.5633 26.5264C86.7818 26.2557 86.993 25.9849 87.2188 25.7142C88.6975 23.914 90.2708 22.2163 91.9242 20.6065C92.6162 19.9332 93.3154 19.2746 94.0365 18.6307C94.3862 18.3234 94.7285 18.016 95.0781 17.7087C95.3476 17.4745 95.6171 17.2403 95.8866 17.0135C97.0739 16.0183 98.283 15.0451 99.5213 14.1011C100.811 13.1205 102.158 12.1912 103.527 11.3423C106.004 9.81295 108.706 8.71531 111.532 8.0055C111.7 7.96159 111.867 7.925 112.042 7.88842C112.479 7.79329 112.938 7.71279 113.397 7.64693C115.495 7.36886 117.745 7.52985 119.559 8.64945C120.113 8.98606 120.586 9.39585 120.994 9.87881C121.278 10.2154 121.526 10.5886 121.737 10.9911C122.218 11.9131 122.495 13.0108 122.546 14.2621C122.56 14.6865 122.575 15.067 122.575 15.4109C122.728 14.5694 122.779 13.6767 122.728 12.879C122.662 11.796 122.291 10.5447 121.81 9.57879C120.266 6.44684 116.602 5.27602 113.331 5.75899C113.222 5.77362 113.113 5.79557 113.004 5.81021C108.932 2.15139 103.986 1.11791e-05 98.6399 1.11791e-05C82.2877 -0.0146241 71.3182 14.3426 71.3182 31.9927C71.3182 49.6428 82.2877 64 98.6399 64C112.45 64 123.682 49.6428 123.682 31.9927C123.682 26.1971 122.458 20.7601 120.339 16.0622ZM85.5508 56.9458C87.2188 57.341 88.865 57.6337 90.2562 57.7361C93.8763 57.9995 99.0114 57.1946 102.981 57.8898C104.656 58.1825 105.997 59.1557 106.965 60.1875C104.38 61.4827 101.568 62.1925 98.6326 62.1925C93.7816 62.1925 89.2729 60.2534 85.5435 56.9458H85.5508ZM111.714 53.5065C111.438 50.0965 111.452 46.6645 111.744 43.2618C112.341 36.3394 114.264 29.4754 118.474 23.8555C118.554 23.7457 118.692 23.5774 118.853 23.3725L118.969 23.2262C118.969 23.2262 118.845 23.3579 120.062 21.8505C120.237 21.6236 120.222 21.6529 120.375 21.426L120.39 21.4114C121.344 24.7043 121.861 28.268 121.861 31.9927C121.861 42.9033 117.41 52.4601 110.731 57.7654C108.48 55.5189 106.011 54.7798 101.495 54.7212C97.1322 54.6627 92.5433 56.0384 86.2865 55.3798C85.4052 55.2847 84.3563 55.014 83.2637 54.6627C82.732 54.0553 82.2221 53.4187 81.7341 52.7528C82.9942 53.1772 84.2907 53.5138 85.4561 53.609C92.3977 54.2163 97.7731 52.6943 102.282 52.6504C106.871 52.5991 109.588 53.3163 111.853 55.1018C111.795 54.5676 111.751 54.0407 111.707 53.5138" fill="white"/>
<path d="M11.7016 84.4V90.016H3.81759V84.4H2.48559V97H3.81759V91.186H11.7016V97H13.0156V84.4H11.7016ZM20.7282 97.09C23.5002 97.09 25.5342 95.074 25.5342 92.266C25.5342 89.458 23.5002 87.46 20.7282 87.46C17.9562 87.46 15.9042 89.458 15.9042 92.266C15.9042 95.074 17.9562 97.09 20.7282 97.09ZM20.7282 95.956C18.7122 95.956 17.2002 94.48 17.2002 92.266C17.2002 90.052 18.7122 88.576 20.7282 88.576C22.7442 88.576 24.2382 90.052 24.2382 92.266C24.2382 94.48 22.7442 95.956 20.7282 95.956ZM28.1433 97H29.4213V83.644H28.1433V97ZM32.9773 97H34.2553V83.644H32.9773V97ZM41.1233 87.46C39.6293 87.46 38.2253 87.928 37.2713 88.738L37.8473 89.692C38.6213 89.008 39.7733 88.576 40.9973 88.576C42.7613 88.576 43.6793 89.458 43.6793 91.078V91.654H40.6733C37.9553 91.654 37.0193 92.878 37.0193 94.336C37.0193 95.974 38.3333 97.09 40.4753 97.09C42.0413 97.09 43.1573 96.496 43.7333 95.524V97H44.9573V91.132C44.9573 88.684 43.5713 87.46 41.1233 87.46ZM40.6733 96.082C39.1613 96.082 38.2793 95.398 38.2793 94.3C38.2793 93.328 38.8733 92.608 40.7093 92.608H43.6793V94.156C43.1753 95.398 42.1133 96.082 40.6733 96.082ZM53.2525 87.46C51.6145 87.46 50.3365 88.126 49.6525 89.278V87.532H48.4285V97H49.7065V92.032C49.7065 89.872 50.9845 88.612 53.0185 88.612C54.8185 88.612 55.8625 89.638 55.8625 91.636V97H57.1405V91.51C57.1405 88.792 55.5565 87.46 53.2525 87.46ZM68.0073 83.644V89.332C67.2153 88.108 65.9193 87.46 64.4073 87.46C61.7073 87.46 59.6913 89.404 59.6913 92.266C59.6913 95.128 61.7073 97.09 64.4073 97.09C65.9733 97.09 67.2873 96.406 68.0613 95.128V97H69.2853V83.644H68.0073ZM64.5153 95.956C62.4993 95.956 60.9873 94.48 60.9873 92.266C60.9873 90.052 62.4993 88.576 64.5153 88.576C66.5133 88.576 68.0253 90.052 68.0253 92.266C68.0253 94.48 66.5133 95.956 64.5153 95.956ZM87.2394 97H88.6434L82.8834 84.4H81.5694L75.8094 97H77.1954L78.7074 93.634H85.7274L87.2394 97ZM79.1934 92.554L82.2174 85.786L85.2414 92.554H79.1934ZM102.266 87.46C100.556 87.46 99.2058 88.234 98.5218 89.458C97.9458 88.126 96.7218 87.46 95.1558 87.46C93.5718 87.46 92.3478 88.126 91.6818 89.26V87.532H90.4578V97H91.7358V92.032C91.7358 89.872 92.9778 88.612 94.9038 88.612C96.6318 88.612 97.6398 89.638 97.6398 91.636V97H98.9178V92.032C98.9178 89.872 100.142 88.612 102.086 88.612C103.796 88.612 104.804 89.638 104.804 91.636V97H106.082V91.51C106.082 88.792 104.57 87.46 102.266 87.46ZM117.845 92.266C117.845 89.422 115.919 87.46 113.255 87.46C110.591 87.46 108.629 89.458 108.629 92.266C108.629 95.074 110.645 97.09 113.597 97.09C115.091 97.09 116.405 96.55 117.251 95.542L116.531 94.714C115.811 95.542 114.785 95.956 113.633 95.956C111.563 95.956 110.051 94.642 109.907 92.662H117.827C117.827 92.518 117.845 92.374 117.845 92.266ZM113.255 88.558C115.109 88.558 116.459 89.854 116.621 91.708H109.907C110.069 89.854 111.419 88.558 113.255 88.558ZM121.67 89.386V87.532H120.446V97H121.724V92.176C121.724 89.944 122.93 88.684 124.91 88.684C125 88.684 125.108 88.702 125.216 88.702V87.46C123.47 87.46 122.264 88.126 121.67 89.386ZM128.178 85.462C128.718 85.462 129.114 85.048 129.114 84.526C129.114 84.04 128.7 83.644 128.178 83.644C127.656 83.644 127.242 84.058 127.242 84.544C127.242 85.048 127.656 85.462 128.178 85.462ZM127.53 97H128.808V87.532H127.53V97ZM136.288 97.09C137.89 97.09 139.24 96.442 139.996 95.218L139.042 94.57C138.394 95.524 137.386 95.956 136.288 95.956C134.218 95.956 132.706 94.498 132.706 92.266C132.706 90.052 134.218 88.576 136.288 88.576C137.386 88.576 138.394 89.026 139.042 89.98L139.996 89.332C139.24 88.09 137.89 87.46 136.288 87.46C133.462 87.46 131.41 89.44 131.41 92.266C131.41 95.092 133.462 97.09 136.288 97.09ZM145.819 87.46C144.325 87.46 142.921 87.928 141.967 88.738L142.543 89.692C143.317 89.008 144.469 88.576 145.693 88.576C147.457 88.576 148.375 89.458 148.375 91.078V91.654H145.369C142.651 91.654 141.715 92.878 141.715 94.336C141.715 95.974 143.029 97.09 145.171 97.09C146.737 97.09 147.853 96.496 148.429 95.524V97H149.653V91.132C149.653 88.684 148.267 87.46 145.819 87.46ZM145.369 96.082C143.857 96.082 142.975 95.398 142.975 94.3C142.975 93.328 143.569 92.608 145.405 92.608H148.375V94.156C147.871 95.398 146.809 96.082 145.369 96.082ZM158.105 97H166.493V95.848H159.437V84.4H158.105V97ZM169.082 85.462C169.622 85.462 170.018 85.048 170.018 84.526C170.018 84.04 169.604 83.644 169.082 83.644C168.56 83.644 168.146 84.058 168.146 84.544C168.146 85.048 168.56 85.462 169.082 85.462ZM168.434 97H169.712V87.532H168.434V97ZM178.092 87.46C176.454 87.46 175.176 88.126 174.492 89.278V87.532H173.268V97H174.546V92.032C174.546 89.872 175.824 88.612 177.858 88.612C179.658 88.612 180.702 89.638 180.702 91.636V97H181.98V91.51C181.98 88.792 180.396 87.46 178.092 87.46ZM193.747 92.266C193.747 89.422 191.821 87.46 189.157 87.46C186.493 87.46 184.531 89.458 184.531 92.266C184.531 95.074 186.547 97.09 189.499 97.09C190.993 97.09 192.307 96.55 193.153 95.542L192.433 94.714C191.713 95.542 190.687 95.956 189.535 95.956C187.465 95.956 185.953 94.642 185.809 92.662H193.729C193.729 92.518 193.747 92.374 193.747 92.266ZM189.157 88.558C191.011 88.558 192.361 89.854 192.523 91.708H185.809C185.971 89.854 187.321 88.558 189.157 88.558Z" fill="white"/>
</svg>
