<svg width="70" height="64" viewBox="0 0 70 64" fill="none" xmlns="http://www.w3.org/2000/svg">
<path d="M68.7675 60.0548C68.1534 60.6809 67.4059 61.1598 66.581 61.4558C65.8254 61.7382 65.0265 61.8871 64.2201 61.8958C62.5277 61.8958 61.3026 61.2821 60.5447 60.0548C59.7731 58.7806 59.2155 57.3881 58.8943 55.9328C58.6317 54.7222 58.4708 53.4917 58.4131 52.2541C58.3248 50.796 58.2376 49.2764 58.1515 47.6954C58.0654 46.1143 57.948 44.5807 57.7994 43.0946C57.6814 41.7438 57.4327 40.4078 57.0566 39.1052C56.5438 37.238 55.5123 35.555 54.0821 34.2521C52.7135 33.0158 51.1648 31.9957 49.4894 31.2269C47.9231 30.5025 46.2793 29.9598 44.59 29.6092C42.9838 29.29 41.7156 29.0743 40.7854 28.9621V28.7874C44.168 28.3797 46.8798 27.5762 48.921 26.377C50.9622 25.1777 52.5221 23.863 53.6008 22.4329C54.5857 21.1929 55.3008 19.7602 55.7001 18.2269C55.9863 17.1235 56.1488 15.9917 56.1846 14.8523C56.1427 12.9164 55.7098 11.009 54.9121 9.24524C54.0573 7.24141 52.6104 5.45436 50.5714 3.88409C48.4611 2.14326 45.9221 1.00336 43.2206 0.583924C40.2054 0.175098 37.1652 -0.0195152 34.1226 0.00154214C33.4206 0.00154214 32.7209 0.0166407 32.0233 0.0468383C31.3256 0.0770359 30.6248 0.0910565 29.9207 0.0888996C29.2231 0.147138 28.5223 0.192434 27.8247 0.221553C27.127 0.250672 26.423 0.263614 25.7221 0.263614H9.09889V1.49309H18.8106V54.2698C18.8106 57.4255 18.2863 59.631 17.2377 60.8863C16.7425 61.4959 16.1137 61.983 15.4001 62.3096C14.6865 62.6361 13.9073 62.7935 13.1231 62.7694C11.7838 62.7694 10.7202 62.4922 9.93215 61.9378C9.14411 61.3835 8.75008 60.4344 8.75008 59.0906C8.73117 58.4092 8.81946 57.7289 9.01169 57.075C9.18609 56.5476 9.3605 56.0526 9.53813 55.5834L10.0613 54.1825C10.2467 53.647 10.3353 53.0828 10.3229 52.5162C10.3119 52.099 10.239 51.6857 10.1066 51.29C9.9593 50.8238 9.72107 50.3916 9.40571 50.0184C9.02433 49.5957 8.56335 49.2527 8.04924 49.009C7.36378 48.6964 6.61544 48.5469 5.86274 48.5722C3.93784 48.5722 2.47909 49.1114 1.4865 50.1899C0.494985 51.2738 0.000841483 52.6877 0.000841483 54.4413C-0.0194399 55.8219 0.327223 57.1832 1.00528 58.3853C1.69933 59.5788 2.63966 60.6102 3.76343 61.4105C5.00679 62.299 6.39937 62.9565 7.87484 63.3517C9.56024 63.8004 11.2986 64.018 13.0423 63.9988C15.7251 63.9988 17.9999 63.5459 19.8667 62.6399C21.6634 61.7992 23.2188 60.5171 24.3883 58.9127C25.5563 57.2506 26.382 55.3719 26.817 53.3865C27.3241 51.1731 27.5733 48.9083 27.5598 46.6374V29.813H36.3091C37.4791 29.8244 38.6477 29.8979 39.8101 30.033C41.1952 30.1901 42.5285 30.6519 43.7147 31.3855C44.9679 32.1469 46.0617 33.3451 46.9961 34.98C47.9306 36.615 48.5141 38.8939 48.7466 41.8166L49.3603 49.792C49.4931 51.7566 49.8001 53.7056 50.2775 55.6158C50.6524 57.1494 51.353 58.5841 52.3316 59.8219C53.3193 61.0015 54.6038 61.8951 56.0522 62.4102C57.596 62.9926 59.5338 63.2849 61.8656 63.287C62.9056 63.3004 63.9449 63.2268 64.9726 63.067C65.705 62.9514 66.4237 62.7606 67.1171 62.4976C67.6239 62.3029 68.108 62.0534 68.5608 61.7534C68.9387 61.4914 69.2713 61.2422 69.5652 61.0093L68.7675 60.0548ZM35.6082 28.59H27.5663V1.50603C28.4792 1.37627 29.3993 1.30279 30.3212 1.28602C31.3978 1.25798 32.4625 1.24288 33.5154 1.24072C35.0576 1.24416 36.5962 1.39148 38.1112 1.68074C39.6329 1.96463 41.0693 2.59444 42.3098 3.52172C43.563 4.45784 44.5835 5.84585 45.3716 7.68575C46.1596 9.52564 46.5526 11.9652 46.5504 15.0043C46.5504 17.6941 46.2888 19.9136 45.7656 21.6629C45.3547 23.2057 44.5905 24.6314 43.5339 25.8269C42.5923 26.8371 41.3997 27.5785 40.0781 27.9753C38.6265 28.3997 37.1203 28.6069 35.6082 28.59Z" fill="white"/>
</svg>
