<svg width="64" height="64" viewBox="0 0 64 64" fill="none" xmlns="http://www.w3.org/2000/svg">
<path d="M6.4 0C4.70261 0 3.07475 0.674284 1.87452 1.87452C0.674284 3.07475 0 4.70261 0 6.4V32H6.4V19.2H12.8V32H19.2V6.4C19.2 4.70261 18.5257 3.07475 17.3255 1.87452C16.1252 0.674284 14.4974 0 12.8 0H6.4ZM6.4 6.4H12.8V12.8H6.4M64 43.2V38.4C64 36.7026 63.3257 35.0747 62.1255 33.8745C60.9253 32.6743 59.2974 32 57.6 32H44.8V64H57.6C59.2974 64 60.9253 63.3257 62.1255 62.1255C63.3257 60.9253 64 59.2974 64 57.6V52.8C63.9676 51.5372 63.4515 50.335 62.5582 49.4418C61.665 48.5485 60.4628 48.0324 59.2 48C60.4628 47.9676 61.665 47.4515 62.5582 46.5582C63.4515 45.665 63.9676 44.4628 64 43.2ZM57.6 57.6H51.2V51.2H57.6V57.6ZM57.6 44.8H51.2V38.4H57.6M12.128 62.752L7.072 58.848L51.872 1.248L56.928 5.152L12.128 62.752Z" fill="#00FF9F"/>
</svg>
