<svg width="64" height="64" viewBox="0 0 64 64" fill="none" xmlns="http://www.w3.org/2000/svg">
<path fill-rule="evenodd" clip-rule="evenodd" d="M21.3334 32H13.2694C12.4867 33.3557 11.2785 34.4152 9.83229 35.0143C8.38605 35.6133 6.78256 35.7184 5.2705 35.3133C3.75844 34.9081 2.42232 34.0153 1.46937 32.7734C0.516411 31.5315 -0.00012207 30.0098 -0.00012207 28.4444C-0.00012207 26.879 0.516411 25.3574 1.46937 24.1155C2.42232 22.8736 3.75844 21.9808 5.2705 21.5756C6.78256 21.1705 8.38605 21.2756 9.83229 21.8746C11.2785 22.4737 12.4867 23.5332 13.2694 24.8889H21.3334V7.11111C21.3334 5.22513 22.0826 3.41639 23.4162 2.0828C24.7498 0.749204 26.5585 0 28.4445 0H56.889C58.7749 0 60.5837 0.749204 61.9173 2.0828C63.2509 3.41639 64.0001 5.22513 64.0001 7.11111V56.8889C64.0001 58.7749 63.2509 60.5836 61.9173 61.9172C60.5837 63.2508 58.7749 64 56.889 64H28.4445C26.5585 64 24.7498 63.2508 23.4162 61.9172C22.0826 60.5836 21.3334 58.7749 21.3334 56.8889V32ZM28.4445 32V56.8889H56.889V7.11111H28.4445V24.8889H36.5085C37.2912 23.5332 38.4994 22.4737 39.9456 21.8746C41.3918 21.2756 42.9953 21.1705 44.5074 21.5756C46.0195 21.9808 47.3556 22.8736 48.3085 24.1155C49.2615 25.3574 49.778 26.879 49.778 28.4444C49.778 30.0098 49.2615 31.5315 48.3085 32.7734C47.3556 34.0153 46.0195 34.9081 44.5074 35.3133C42.9953 35.7184 41.3918 35.6133 39.9456 35.0143C38.4994 34.4152 37.2912 33.3557 36.5085 32H28.4445Z" fill="#00FF9F"/>
</svg>
