<svg width="64" height="64" viewBox="0 0 64 64" fill="none" xmlns="http://www.w3.org/2000/svg">
<path d="M54.3959 23.5402L40.5007 9.64496L45.1597 4.98595C46.413 3.73265 47.9529 3.106 49.7794 3.106C51.6038 3.106 53.1426 3.73265 54.3959 4.98595L59.0549 9.64496C60.3082 10.8983 60.9349 12.4371 60.9349 14.2615C60.9349 16.088 60.3082 17.6279 59.0549 18.8812L54.3959 23.5402ZM2.57474 61.4662V47.5709L17.2874 32.8582L0.0408936 15.4483L15.4892 0L32.8174 17.41L35.9234 14.304L49.8187 28.1175L46.7127 31.2235L63.9592 48.6335L48.5926 64L31.1827 46.6718L16.47 61.4662H2.57474ZM21.9464 28.1992L28.1584 21.9872L24.235 18.0639L20.3116 21.9055L15.7344 17.3282L19.576 13.4049L15.4074 9.31801L9.27717 15.53L21.9464 28.1992ZM48.5109 54.7637L54.7229 48.5517L50.5543 44.4649L46.7127 48.3065L42.0537 43.7293L45.977 39.8059L41.9719 35.8825L35.7599 42.0945L48.5109 54.7637Z" fill="#00FF9F"/>
</svg>
