<svg width="31" height="32" viewBox="0 0 31 32" fill="none" xmlns="http://www.w3.org/2000/svg">
<g clip-path="url(#clip0_726_989)">
<path d="M9.25493 0.0991211H9.55536H20.2462H21.4952H21.5785H21.6618L21.9116 0.182389L22.0781 0.265656L22.2447 0.432191L22.3279 0.515458L22.4112 0.681993L22.4945 0.931796V1.01506V1.09833V1.26487L22.4112 1.51467L22.3279 1.6812L22.1614 1.84774L22.0781 1.93101L21.9116 2.01427L21.7451 2.09754L21.6618 2.18081L21.5785 2.34734V2.51388L21.6618 2.76368L21.9949 3.26328L22.1614 3.76289L22.3279 4.26249L22.4112 4.7621L22.4945 5.67804V6.51071L22.4112 7.17685L22.2447 7.84299L21.9116 8.8422L21.5785 9.75815L20.9956 11.0072L20.163 12.1729L19.8299 12.5892L19.5801 12.7558L19.3303 12.839H18.9972L18.6642 12.6725L18.5809 12.5892L18.4144 12.3394L18.3311 12.0896V11.7566L18.4144 11.5068L18.5809 11.257L18.8307 10.8406L19.247 9.84141L19.8299 7.92626L19.9964 6.67725V5.51151V5.0119L19.8299 4.09596L19.6634 3.42982L19.3303 2.76368L19.0805 2.34734L18.7474 1.93101L18.3311 1.59794L17.7482 1.26487L17.1653 1.01506L16.4992 0.848528L15.5833 0.765261H15.4167L14.584 0.848528L14.0012 0.931796L13.2518 1.1816L12.7522 1.4314L12.3358 1.76447L11.9195 2.26407L11.5864 2.76368L11.2534 3.42982L11.0868 3.92942L11.0035 4.34576L10.9203 5.51151V6.67725L11.0868 7.92626L11.2534 8.8422L11.5864 9.75815L12.086 11.0072L12.3358 11.4235L12.7522 12.0896L13.2518 12.839L13.6681 13.3386L14.4175 14.0881L15.1669 14.8375L15.9996 15.5869L17.4151 16.7526L18.8307 18.0016L19.5801 18.8343L20.163 19.5004L20.5793 20.0833L21.0789 20.9993L21.4952 21.8319L21.87 22.8103L22.0781 23.4973L22.2447 24.0801L22.4112 24.9961L22.4945 25.7558V26.7447L22.4112 27.4108L22.1614 28.077L21.8283 28.7431L21.6618 29.0762L21.5785 29.2427V29.4093L21.6618 29.6591L21.7451 29.7423L21.9116 29.8256L22.0781 29.9089L22.1614 29.9921L22.2447 30.0754L22.3279 30.1587L22.4112 30.3252L22.4945 30.575V30.6583V30.9081L22.4112 31.1579L22.3279 31.3244L22.1614 31.4909L22.0781 31.5742L21.9116 31.6575L21.6618 31.7408H9.3382H9.17166L8.92186 31.6575L8.75533 31.5742L8.58879 31.4077L8.50552 31.3244L8.42226 31.1579L8.33899 30.9081V30.8248V30.575L8.42226 30.3252L8.50552 30.1587L8.67206 29.9921L8.75533 29.9089L9.0884 29.7423L9.17166 29.6591L9.25493 29.4093V29.2427L9.17166 28.9929L8.83859 28.4101L8.67206 27.9104L8.58879 27.6606L8.50552 27.3276L8.42226 26.828L8.33899 25.7558L8.50552 24.5798L8.67206 23.9136L8.83859 23.3307L9.0884 22.5813L9.3382 21.9985L9.67127 21.3323L10.2541 20.1666L11.8362 18.1682L12.0028 18.0016L12.1693 17.9184L12.4191 17.8351H12.5856H12.7522L12.9187 17.9184L13.002 18.0016L13.0852 18.0849L13.1685 18.1682L13.335 18.5012V18.6678V18.9176L13.2518 19.1674L13.1685 19.3339L12.7522 19.7502L12.4191 20.2498L12.1693 20.6662L11.753 21.5821L11.5032 22.2483L11.3366 22.7479L11.0868 23.4973L11.0035 24.0801L10.9203 24.663L10.837 25.4957V26.1618L10.9203 26.9112L11.0868 27.7439L11.3366 28.4933L11.753 29.2427L12.1693 29.7423L12.7522 30.2419L13.4183 30.575L14.1677 30.8248L14.7506 30.9081H15.3335H16.1661L16.749 30.8248L17.4984 30.575L18.0813 30.2419L18.6642 29.8256L18.914 29.5758L19.247 29.0762L19.5801 28.4101L19.9132 27.3276L19.9964 26.7447V25.6622V25.1626L19.9132 24.1634L19.7466 23.5805L19.5801 22.9977L19.4136 22.4148L18.9972 21.3323L18.6642 20.7494L18.2478 20L17.9147 19.5004L17.4151 18.8343L16.749 18.0849L15.6665 16.9191L11.9195 13.5052L11.1701 12.6725L10.6705 12.0896L10.1709 11.3402L9.3382 9.84141L8.83859 8.42587L8.58879 7.50992L8.50552 6.67725L8.42226 6.01111V5.2617L8.50552 4.59556L8.58879 4.17923L8.75533 3.59635L9.0884 2.93021L9.17166 2.68041V2.51388V2.34734L9.0884 2.18081L8.92186 2.01427L8.67206 1.84774L8.50552 1.6812L8.42226 1.51467L8.33899 1.1816V0.931796L8.42226 0.681993L8.50552 0.515458L8.67206 0.348923L8.92186 0.182389L9.25493 0.0991211Z" fill="white"/>
<path d="M13.4328 12.0357L12.9836 11.3569L12.6093 10.7533L12.3848 10.3763L11.9355 9.24486L11.636 8.41501L11.4863 7.58532L11.3366 6.45387V5.39783L11.4115 4.3418L11.636 4.1792L13.5638 4.40818L14.0012 4.51227L15.0836 5.09514L15.8331 5.01187L16.9515 4.86616H17.4193L19.3471 5.09514L19.4968 5.39783V6.45387L19.3471 7.58532L18.823 9.3203L18.3739 10.7533L17.4754 12.2561L16.9515 13.3386L16.1661 14.5044L14.8338 13.755L14.1066 12.839L13.4328 12.0357Z" fill="#AF2D0A"/>
<path d="M11.3972 27.5281L11.2458 26.7702L11.3972 26.2453L12.0028 25.5792L12.6689 24.9963L13.5167 24.3302L14.198 23.8306L14.7279 23.2477L14.9171 17.5855L15.2578 17.2524L15.5833 17.5855L15.7498 23.2477L16.3327 23.8306L18.8155 25.4127L19.4212 26.2453L19.4968 26.6185L19.4212 27.1493L19.1183 28.1347L18.8155 28.741L18.5128 29.1958L18.2856 29.4233L17.7559 29.8023L17.226 30.1054L16.5447 30.3329L16.0147 30.4087H15.2578H14.7279L14.198 30.3329L13.5167 30.1054L12.9112 29.8023L12.3813 29.3475L12.0028 28.8926L11.6242 28.2104L11.3972 27.5281Z" fill="#AF2D0A"/>
<path d="M-0.204956 17.7518V12.1562H2.19315C2.56086 12.1562 2.8806 12.2229 3.15239 12.3561C3.42417 12.4893 3.63467 12.6758 3.78389 12.9157C3.93843 13.1555 4.0157 13.4379 4.0157 13.763C4.0157 14.1307 3.90646 14.4478 3.68796 14.7142C3.4748 14.9754 3.18703 15.1592 2.82465 15.2658L4.07965 17.7518H3.40019L2.20114 15.3457H0.410557V17.7518H-0.204956ZM0.410557 14.8261H2.15318C2.53155 14.8261 2.83264 14.7302 3.05646 14.5384C3.28562 14.3465 3.40019 14.0881 3.40019 13.763C3.40019 13.4432 3.28562 13.1874 3.05646 12.9956C2.83264 12.8037 2.53155 12.7078 2.15318 12.7078H0.410557V14.8261Z" fill="white"/>
<path d="M28.912 17.8398C28.507 17.8398 28.1286 17.7678 27.7769 17.624C27.4252 17.4747 27.1161 17.2696 26.8496 17.0084C26.5832 16.742 26.3754 16.4356 26.2261 16.0892C26.0823 15.7375 26.0103 15.3591 26.0103 14.9541C26.0103 14.5491 26.0823 14.1734 26.2261 13.827C26.3754 13.4752 26.5832 13.1688 26.8496 12.9077C27.1161 12.6412 27.4252 12.4361 27.7769 12.2922C28.1286 12.143 28.507 12.0684 28.912 12.0684C29.2051 12.0684 29.4849 12.1057 29.7514 12.1803C30.0231 12.2495 30.2736 12.3535 30.5028 12.492C30.7372 12.6253 30.9451 12.7905 31.1263 12.9876L30.7186 13.4193C30.5001 13.1688 30.231 12.977 29.9112 12.8437C29.5915 12.7052 29.2584 12.6359 28.912 12.6359C28.5869 12.6359 28.2858 12.6945 28.0087 12.8118C27.7316 12.929 27.4891 13.0942 27.2813 13.3074C27.0788 13.5152 26.9189 13.7604 26.8017 14.0428C26.6898 14.3199 26.6338 14.6237 26.6338 14.9541C26.6338 15.2792 26.6898 15.5829 26.8017 15.8654C26.9189 16.1478 27.0815 16.3956 27.2893 16.6088C27.4971 16.8166 27.7396 16.9791 28.0167 17.0964C28.2992 17.2136 28.6029 17.2722 28.928 17.2722C29.2744 17.2722 29.6048 17.2056 29.9192 17.0724C30.2336 16.9338 30.4974 16.7447 30.7106 16.5048L31.1103 16.9205C30.9238 17.1124 30.7133 17.2776 30.4788 17.4161C30.2496 17.5547 30.0018 17.6613 29.7354 17.7359C29.4689 17.8052 29.1945 17.8398 28.912 17.8398Z" fill="white"/>
</g>
<defs>
<clipPath id="clip0_726_989">
<rect width="30.8364" height="32" fill="white" transform="translate(0.0817871)"/>
</clipPath>
</defs>
</svg>
