<svg width="64" height="64" viewBox="0 0 64 64" fill="none" xmlns="http://www.w3.org/2000/svg">
<path d="M13.4737 40.4211C13.4737 42.2078 12.7639 43.9213 11.5005 45.1847C10.2371 46.4481 8.52356 47.1579 6.73684 47.1579C4.95012 47.1579 3.23658 46.4481 1.97318 45.1847C0.709772 43.9213 0 42.2078 0 40.4211C0 38.6343 0.709772 36.9208 1.97318 35.6574C3.23658 34.394 4.95012 33.6842 6.73684 33.6842H13.4737V40.4211ZM16.8421 40.4211C16.8421 38.6343 17.5519 36.9208 18.8153 35.6574C20.0787 34.394 21.7922 33.6842 23.5789 33.6842C25.3657 33.6842 27.0792 34.394 28.3426 35.6574C29.606 36.9208 30.3158 38.6343 30.3158 40.4211V57.2632C30.3158 59.0499 29.606 60.7634 28.3426 62.0268C27.0792 63.2902 25.3657 64 23.5789 64C21.7922 64 20.0787 63.2902 18.8153 62.0268C17.5519 60.7634 16.8421 59.0499 16.8421 57.2632V40.4211ZM23.5789 13.4737C21.7922 13.4737 20.0787 12.7639 18.8153 11.5005C17.5519 10.2371 16.8421 8.52356 16.8421 6.73684C16.8421 4.95012 17.5519 3.23658 18.8153 1.97318C20.0787 0.709772 21.7922 0 23.5789 0C25.3657 0 27.0792 0.709772 28.3426 1.97318C29.606 3.23658 30.3158 4.95012 30.3158 6.73684V13.4737H23.5789ZM23.5789 16.8421C25.3657 16.8421 27.0792 17.5519 28.3426 18.8153C29.606 20.0787 30.3158 21.7922 30.3158 23.5789C30.3158 25.3657 29.606 27.0792 28.3426 28.3426C27.0792 29.606 25.3657 30.3158 23.5789 30.3158H6.73684C4.95012 30.3158 3.23658 29.606 1.97318 28.3426C0.709772 27.0792 0 25.3657 0 23.5789C0 21.7922 0.709772 20.0787 1.97318 18.8153C3.23658 17.5519 4.95012 16.8421 6.73684 16.8421H23.5789ZM50.5263 23.5789C50.5263 21.7922 51.2361 20.0787 52.4995 18.8153C53.7629 17.5519 55.4764 16.8421 57.2632 16.8421C59.0499 16.8421 60.7634 17.5519 62.0268 18.8153C63.2902 20.0787 64 21.7922 64 23.5789C64 25.3657 63.2902 27.0792 62.0268 28.3426C60.7634 29.606 59.0499 30.3158 57.2632 30.3158H50.5263V23.5789ZM47.1579 23.5789C47.1579 25.3657 46.4481 27.0792 45.1847 28.3426C43.9213 29.606 42.2078 30.3158 40.4211 30.3158C38.6343 30.3158 36.9208 29.606 35.6574 28.3426C34.394 27.0792 33.6842 25.3657 33.6842 23.5789V6.73684C33.6842 4.95012 34.394 3.23658 35.6574 1.97318C36.9208 0.709772 38.6343 0 40.4211 0C42.2078 0 43.9213 0.709772 45.1847 1.97318C46.4481 3.23658 47.1579 4.95012 47.1579 6.73684V23.5789ZM40.4211 50.5263C42.2078 50.5263 43.9213 51.2361 45.1847 52.4995C46.4481 53.7629 47.1579 55.4764 47.1579 57.2632C47.1579 59.0499 46.4481 60.7634 45.1847 62.0268C43.9213 63.2902 42.2078 64 40.4211 64C38.6343 64 36.9208 63.2902 35.6574 62.0268C34.394 60.7634 33.6842 59.0499 33.6842 57.2632V50.5263H40.4211ZM40.4211 47.1579C38.6343 47.1579 36.9208 46.4481 35.6574 45.1847C34.394 43.9213 33.6842 42.2078 33.6842 40.4211C33.6842 38.6343 34.394 36.9208 35.6574 35.6574C36.9208 34.394 38.6343 33.6842 40.4211 33.6842H57.2632C59.0499 33.6842 60.7634 34.394 62.0268 35.6574C63.2902 36.9208 64 38.6343 64 40.4211C64 42.2078 63.2902 43.9213 62.0268 45.1847C60.7634 46.4481 59.0499 47.1579 57.2632 47.1579H40.4211Z" fill="#00FF9F"/>
</svg>
