<svg width="68" height="64" viewBox="0 0 68 64" fill="none" xmlns="http://www.w3.org/2000/svg">
<path d="M21.8095 60.9524C17.5937 60.9524 14.0005 59.4672 11.0301 56.4968C8.05766 53.5243 6.57143 49.9302 6.57143 45.7143V18.2857C4.89524 18.2857 3.46083 17.6884 2.2682 16.4937C1.07353 15.3011 0.476196 13.8667 0.476196 12.1905V6.09524C0.476196 4.41905 1.07353 2.98362 2.2682 1.78895C3.46083 0.596317 4.89524 0 6.57143 0H37.0476C38.7238 0 40.1592 0.596317 41.3539 1.78895C42.5465 2.98362 43.1429 4.41905 43.1429 6.09524V12.1905C43.1429 13.8667 42.5465 15.3011 41.3539 16.4937C40.1592 17.6884 38.7238 18.2857 37.0476 18.2857V27.5048C34.9143 28.8762 33.0989 30.59 31.6015 32.6461C30.1021 34.7043 29.0476 37.0286 28.4381 39.619H21.8095V33.5238H30.9524V30.4762H21.8095V24.381H30.9524V18.2857H12.6667V45.7143C12.6667 48.254 13.5556 50.4127 15.3333 52.1905C17.1111 53.9683 19.2698 54.8571 21.8095 54.8571C23.3333 54.8571 24.7302 54.527 26 53.8667C27.2698 53.2063 28.3365 52.2921 29.2 51.1238C29.6064 52.1397 30.0635 53.1048 30.5714 54.0191C31.0794 54.9333 31.6889 55.8222 32.4 56.6857C31.0286 58.0064 29.4418 59.0476 27.6396 59.8095C25.8354 60.5714 23.8921 60.9524 21.8095 60.9524ZM21.8095 48.7619V42.6667H27.981C27.8794 43.6825 27.8672 44.6984 27.9444 45.7143C28.0196 46.7302 28.1841 47.746 28.4381 48.7619H21.8095ZM47.7143 51.8095C49.8476 51.8095 51.6508 51.073 53.1238 49.6C54.5968 48.127 55.3333 46.3238 55.3333 44.1905C55.3333 42.0571 54.5968 40.254 53.1238 38.781C51.6508 37.3079 49.8476 36.5714 47.7143 36.5714C45.581 36.5714 43.7778 37.3079 42.3048 38.781C40.8317 40.254 40.0952 42.0571 40.0952 44.1905C40.0952 46.3238 40.8317 48.127 42.3048 49.6C43.7778 51.073 45.581 51.8095 47.7143 51.8095ZM63.2571 64L55.0286 55.7714C53.9111 56.4825 52.7429 57.0159 51.5238 57.3714C50.3048 57.727 49.0349 57.9048 47.7143 57.9048C43.9048 57.9048 40.6662 56.5719 37.9985 53.9063C35.3328 51.2386 34 48 34 44.1905C34 40.381 35.3328 37.1423 37.9985 34.4747C40.6662 31.809 43.9048 30.4762 47.7143 30.4762C51.5238 30.4762 54.7624 31.809 57.4301 34.4747C60.0957 37.1423 61.4286 40.381 61.4286 44.1905C61.4286 45.5111 61.2508 46.781 60.8952 48C60.5397 49.219 60.0063 50.3873 59.2952 51.5048L67.5238 59.7333L63.2571 64Z" fill="#00FF9F"/>
</svg>
