<svg width="64" height="60" viewBox="0 0 64 60" fill="none" xmlns="http://www.w3.org/2000/svg">
<path d="M36.744 19.1979C38.5408 18.865 40.2066 18.0302 41.5489 16.7901C42.8911 15.55 43.8549 13.9554 44.3289 12.1905C44.8028 10.4256 44.7675 8.56263 44.227 6.81699C43.6865 5.07134 42.663 3.51434 41.2747 2.32605C39.8864 1.13775 38.1901 0.366696 36.3819 0.102052C34.5738 -0.162593 32.7277 0.0899838 31.0571 0.830572C29.3865 1.57116 27.9596 2.76951 26.9415 4.28703C25.9234 5.80456 25.3557 7.57927 25.304 9.40594H30.016C33.732 9.40594 36.744 12.4179 36.744 16.1339V19.1979ZM19.564 50.1499H30.016C33.732 50.1499 36.744 47.1379 36.744 43.4219V22.3299H47.876C48.6172 22.3488 49.3207 22.6609 49.8322 23.1979C50.3436 23.7348 50.6212 24.4526 50.604 25.1939V42.3699C50.7071 46.8173 49.0408 51.1238 45.971 54.3435C42.9013 57.5632 38.6792 59.4329 34.232 59.5419C27.76 59.3819 22.232 55.5819 19.564 50.1419V50.1499ZM62.512 12.6619C62.512 13.5415 62.3387 14.4125 62.0021 15.2252C61.6655 16.0378 61.1721 16.7762 60.5502 17.3981C59.9282 18.0201 59.1898 18.5135 58.3772 18.8501C57.5645 19.1867 56.6936 19.3599 55.814 19.3599C54.9344 19.3599 54.0634 19.1867 53.2508 18.8501C52.4381 18.5135 51.6997 18.0201 51.0778 17.3981C50.4558 16.7762 49.9624 16.0378 49.6258 15.2252C49.2892 14.4125 49.116 13.5415 49.116 12.6619C49.116 10.8855 49.8216 9.18186 51.0778 7.92574C52.3339 6.66962 54.0375 5.96394 55.814 5.96394C57.5904 5.96394 59.294 6.66962 60.5502 7.92574C61.8063 9.18186 62.512 10.8855 62.512 12.6619ZM53.56 50.6139C53.4 50.6139 53.24 50.6139 53.08 50.6059C54.1482 47.979 54.6668 45.1611 54.604 42.3259V25.2339C54.6205 24.2348 54.4156 23.2445 54.004 22.3339H61.172C62.732 22.3339 64 23.6019 64 25.1619V40.2219C64 42.9781 62.9051 45.6213 60.9562 47.5702C59.0073 49.5191 56.3641 50.6139 53.608 50.6139H53.556H53.56Z" fill="#00FF9F"/>
<path d="M2.728 13.4063H30.016C31.524 13.4063 32.744 14.6263 32.744 16.1343V43.4223C32.744 44.1459 32.4566 44.8397 31.945 45.3513C31.4334 45.8629 30.7395 46.1503 30.016 46.1503H2.728C2.36975 46.1503 2.01502 46.0798 1.68404 45.9427C1.35306 45.8056 1.05233 45.6046 0.799013 45.3513C0.545694 45.098 0.344751 44.7973 0.207657 44.4663C0.0705618 44.1353 0 43.7806 0 43.4223L0 16.1303C0 14.6223 1.22 13.4063 2.728 13.4063ZM23.552 23.7903V20.9103H9.192V23.7903H14.62V38.6503H18.1V23.7903H23.552Z" fill="#00FF9F"/>
</svg>
