<svg width="89" height="112" viewBox="0 0 89 112" fill="none" xmlns="http://www.w3.org/2000/svg">
<path d="M59.9054 37.0849C60.0432 37.6936 60.2286 38.2905 60.4598 38.8703C60.7228 39.577 61.0451 40.2602 61.4235 40.9127C61.4235 40.9127 61.8525 41.6901 62.9613 43.3108C62.9863 43.3528 63.015 43.3925 63.0471 43.4294C63.0997 43.4859 63.1462 43.5477 63.1858 43.6139C63.2024 43.6522 63.2156 43.6918 63.2254 43.7324C63.2254 43.7324 63.2254 43.8049 63.2848 43.9367C63.3442 44.0684 63.4828 44.5955 63.6016 45.004C63.7732 45.5771 64.0306 46.4204 64.1626 46.8421C64.2286 47.0529 64.2946 47.2571 64.321 47.3757C64.3372 47.4477 64.3593 47.5182 64.387 47.5866C64.387 47.5866 64.387 47.6459 64.387 47.6524C64.3388 47.6338 64.2942 47.607 64.255 47.5734L64.0966 47.4877C63.7534 47.3099 63.0736 46.8948 63.0736 46.8948C62.4993 46.539 61.8921 46.1635 61.6611 45.9922C61.5621 45.9131 61.4433 45.8407 61.3377 45.7682C61.3015 45.7388 61.2616 45.7144 61.2189 45.6957C61.2189 45.6957 61.2189 45.6957 61.2189 45.7419C61.3575 45.9197 61.4565 46.1108 61.6083 46.2821C62.0241 46.7433 62.4795 47.4548 63.727 48.7659C63.8722 48.9174 64.4662 49.5367 65.3242 50.3141L65.8193 50.7621C65.9315 51.0717 66.0173 51.3221 66.0833 51.4868C66.6707 53.1339 66.8687 53.628 67.2449 54.6557C67.3769 55.0247 67.3835 55.0444 67.4231 55.1367C67.5287 55.3673 67.5947 55.6044 67.7069 55.7955C67.7069 55.8416 67.7796 55.9404 67.7069 55.9602C67.6386 55.94 67.5739 55.9088 67.5155 55.868C67.3885 55.8087 67.2586 55.7559 67.1261 55.7099C66.8885 55.611 64.4398 54.5833 63.5554 54.1089C63.2914 53.9706 63.0009 53.8651 62.7501 53.7202C62.7002 53.6828 62.6445 53.6539 62.5851 53.6346C62.5455 53.6346 62.7369 53.8783 62.8623 54.0035C62.9625 54.1059 63.0683 54.2027 63.1792 54.2934C63.463 54.5174 63.1198 54.2934 64.0042 54.9522C64.6246 55.4595 65.014 55.7757 65.5949 56.2171C66.5651 56.9616 67.3439 57.4953 67.7465 57.7786L69.0666 58.6614L69.5418 58.971L69.5946 59.083C69.6408 59.2016 69.753 59.452 69.7728 59.4981L70.4329 60.9739C70.9939 62.2124 71.5153 63.3324 71.7991 63.9254C71.9839 64.3207 72.2083 64.8082 72.5186 65.4407C72.7232 65.8755 73.073 66.5936 73.073 66.5936L71.4559 66.0666L71.0467 65.9282L69.5418 65.4209C68.4396 65.0454 63.43 63.1941 63.2914 63.1611H63.2056C63.2056 63.1611 64.1164 63.82 65.146 64.4261L66.1757 65.0388C66.4265 65.1837 66.9545 65.4934 67.7136 65.915C68.235 66.2115 69.225 66.7649 70.5649 67.4764C72.0499 68.2604 73.205 68.7941 73.469 68.9588L75.5019 69.9536L75.6273 70.1776C76.5117 71.8049 78.8152 75.547 78.8152 75.547C79.4753 76.5814 80.3399 78.0835 81.3035 79.9941L64.42 77.0821C61.1859 74.012 56.8099 70.843 52.0775 70.843C51.8003 70.843 51.5165 70.843 51.2392 70.843C46.3418 71.2317 42.6589 75.0397 41.5764 75.0397C41.5147 75.0414 41.4535 75.0278 41.3982 75.0002C41.0352 74.7762 41.319 73.7221 44.3155 69.9866L56.6911 63.1216L46.7114 66.6331L50.302 58.971L57.5095 53.4764L52.0379 55.9602L53.9916 50.7291C54.216 50.5381 54.876 49.9386 55.1268 49.6816C56.5195 48.2783 58.3675 45.8934 58.6118 45.6826C58.6118 45.6826 58.6712 45.6299 58.6646 45.6299C58.5781 45.6755 58.4944 45.7261 58.4138 45.7814C57.8989 46.1371 56.8693 46.7762 56.5921 46.9475C56.3149 47.1188 55.932 47.3428 55.4502 47.6063C55.4964 47.4614 55.5558 47.2637 55.635 47.02C55.965 45.9593 56.2951 44.9381 56.3413 44.6614C56.3875 44.3847 56.4667 44.2529 56.5195 44.0553C56.5723 43.8576 56.5921 43.8642 56.6119 43.7654C56.6214 43.696 56.6438 43.629 56.6779 43.5677L56.7505 43.4623C57.3868 42.6231 57.9667 41.7428 58.4864 40.827C58.7881 40.2677 59.057 39.6914 59.2916 39.1009C59.5415 38.457 59.7466 37.7966 59.9054 37.1244M53.9652 50.7687L53.8992 50.8346C53.8992 50.8346 53.8992 50.8346 53.9718 50.7621M59.9384 27.9668L57.9583 36.6435C57.8267 37.2293 57.6502 37.8042 57.4303 38.363C57.231 38.8766 56.9972 39.3763 56.7307 39.8586C56.2741 40.6775 55.7671 41.4674 55.2126 42.2237C55.1071 42.342 55.0163 42.4725 54.942 42.6124C54.8177 42.8306 54.7265 43.0659 54.6714 43.3108C54.6714 43.3833 54.6252 43.4491 54.6054 43.5216C54.5856 43.5941 54.546 43.7259 54.513 43.8247L54.4272 44.1211C54.3678 44.3122 54.0708 45.34 53.7276 46.4402C53.6549 46.6774 53.5955 46.8684 53.5493 47.0068L52.8893 49.0294L52.6319 49.2666L52.5527 49.339L52.2821 49.5828L52.2161 49.7607C52.0696 49.9901 51.975 50.2487 51.9389 50.5183L50.1832 55.2684L49.5232 57.0802L49.1139 57.3964L48.7245 57.6863L48.5199 58.1277L44.9426 65.7964L43.9591 67.9508L43.4113 68.2604L43.0681 68.4449L42.8239 68.748C39.6557 72.7009 39.1805 74.0186 39.3851 75.1517C39.4384 75.4648 39.5578 75.763 39.7353 76.0265C39.9128 76.29 40.1444 76.5128 40.4148 76.6802C40.7801 76.9034 41.2009 77.0198 41.6292 77.0162C42.5929 77.0162 43.4113 76.4826 44.6522 75.6986C46.3616 74.5851 48.7047 73.0633 51.4504 72.8393C51.6749 72.8393 51.8993 72.8393 52.1105 72.8393C55.4106 72.8393 59.1068 74.7564 63.0868 78.5381L63.5224 78.9466L64.1098 79.052L80.9801 82.0101L84.8677 82.6689L83.0922 79.1508C82.3134 77.6157 81.4817 76.1202 80.6105 74.7037L80.5247 74.5588C80.4323 74.4073 78.2278 70.8233 77.3896 69.2882L77.2642 69.0576L76.9605 68.5042L76.3863 68.2275L75.5613 67.8256L74.9805 66.0138L74.9409 65.8887L74.8815 65.7701L74.3204 64.6237C74.0168 63.9649 73.7924 63.5169 73.6076 63.1282C73.2842 62.4299 72.7826 61.3626 72.2875 60.2096C72.2875 60.2096 72.0169 59.6167 71.7397 58.9842C71.7094 58.5391 71.5224 58.1191 71.2117 57.7983L71.1589 57.6797L70.7629 57.4228L70.6903 57.3767L70.2151 57.067L69.6474 56.6915C69.7575 56.4105 69.8056 56.1091 69.7885 55.8078C69.7714 55.5065 69.6895 55.2125 69.5484 54.9456C69.5141 54.8801 69.4854 54.8117 69.4626 54.7414C69.4098 54.5964 69.357 54.4581 69.291 54.3197C69.291 54.3197 69.291 54.2473 69.2382 54.1616L69.1656 53.964C69.0204 53.5621 68.895 53.2393 68.7696 52.9033C68.5782 52.3762 68.3604 51.803 68.004 50.8082L67.7202 50.0703L67.5485 49.5894L67.1723 49.2534L66.6971 48.8317L66.2285 48.3969C66.3311 48.154 66.3839 47.893 66.3839 47.6294C66.3839 47.3658 66.3311 47.1048 66.2285 46.8619C66.2285 46.7499 66.1427 46.572 66.0833 46.3809L66.0437 46.2491C65.9183 45.8407 65.6609 45.004 65.4959 44.4374L65.179 43.3767L65.1262 43.1988C65.0894 43.0558 65.0385 42.9168 64.9744 42.7837C64.8786 42.586 64.7565 42.4021 64.6114 42.2369C63.5884 40.7414 63.1726 40.0035 63.1726 39.9969C62.8446 39.4303 62.5643 38.8375 62.3343 38.2247C62.1498 37.7423 62.002 37.2468 61.8921 36.7423L59.9912 28.0459L59.9384 27.9668Z" fill="white"/>
<path d="M30.6068 37.0849C30.7403 37.6911 30.9145 38.2875 31.1282 38.8703C31.394 39.563 31.7117 40.2347 32.0786 40.8797C32.0786 40.8797 32.5077 41.6571 33.6165 43.2779L33.7023 43.3964C33.7565 43.4531 33.8052 43.5149 33.8475 43.5809C33.8526 43.6203 33.8526 43.6601 33.8475 43.6995C33.8475 43.6995 33.8475 43.772 33.9135 43.9037C33.9795 44.0355 34.1115 44.5626 34.2303 44.971L34.7848 46.8091C34.8508 47.02 34.9168 47.2242 34.9498 47.3428C34.9643 47.4144 34.9841 47.4849 35.0092 47.5536C35.0092 47.5536 35.0488 47.6129 35.0092 47.6195C34.9626 47.5977 34.9184 47.5712 34.8772 47.5404L34.7848 47.435C34.4415 47.2571 33.7683 46.8421 33.7683 46.8421C33.1875 46.4863 32.5803 46.1108 32.3559 45.9395C32.2502 45.8604 32.138 45.788 32.0258 45.7155C31.9918 45.6865 31.9541 45.6621 31.9136 45.643C31.9136 45.643 31.9136 45.643 31.9136 45.6891C32.0522 45.867 32.1512 46.0581 32.3031 46.2294C32.7387 46.7103 33.1875 47.435 34.4415 48.7527C34.5868 48.9042 35.1808 49.5235 36.0322 50.3009L36.5338 50.7489C36.6394 51.0586 36.7318 51.3089 36.7912 51.4736C37.3853 53.1207 37.5833 53.6148 37.9595 54.6426C38.0915 55.0115 38.0981 55.0313 38.1377 55.1235C38.2367 55.3541 38.3093 55.5913 38.4215 55.7823C38.4215 55.8284 38.4875 55.9273 38.4215 55.947C38.3521 55.9296 38.287 55.8982 38.2301 55.8548C38.1031 55.7955 37.9731 55.7427 37.8407 55.6967C37.6031 55.5979 35.1544 54.5701 34.2633 54.0957C34.0059 53.9574 33.7155 53.852 33.4581 53.707C33.4082 53.6696 33.3524 53.6407 33.2931 53.6214C33.2535 53.6214 33.4449 53.8651 33.5703 53.9903C33.6687 54.0945 33.7746 54.1914 33.8871 54.2802C34.1709 54.5042 33.8211 54.2802 34.7122 54.939C35.3326 55.4463 35.722 55.7626 36.3028 56.204C37.2731 56.9484 38.0453 57.4821 38.4545 57.7654L39.7746 58.6482L40.2498 58.9578L40.3026 59.0699C40.3554 59.1884 40.461 59.4388 40.4874 59.4849L41.1474 60.9607C41.7085 62.1993 42.2299 63.3193 42.5071 63.9122C42.6919 64.3075 42.9229 64.795 43.2265 65.4275L43.7875 66.5804L42.1705 66.0534L41.7613 65.915L40.2564 65.4077C39.1541 65.0322 34.1445 63.1809 34.0059 63.148H33.9201C33.9201 63.148 34.8244 63.8068 35.8606 64.4129C36.1774 64.6106 36.415 64.7489 36.8903 65.0256C37.1345 65.1706 37.6625 65.4802 38.4281 65.9018C38.9495 66.1983 39.9396 66.7517 41.2794 67.4633C42.7645 68.2473 43.9196 68.7809 44.1836 68.9456L46.2164 69.9404L46.3353 70.1644C47.2197 71.7917 49.5298 75.5338 49.5298 75.5338C50.5 76.6407 50.8499 77.2731 50.6518 77.4313C50.602 77.4605 50.5446 77.4743 50.4868 77.4708C50.0468 77.4708 48.8874 76.9108 47.0085 75.7908L40.6986 71.5875L26.0922 77.0821L21.472 77.899L9.20866 80.0402L15.0433 70.0195L27.4584 63.1216L17.4722 66.6331L21.0628 58.971L28.2703 53.4764L22.7722 55.9602L24.6995 50.7291C24.9173 50.5381 25.5774 49.9386 25.8348 49.6816C27.2208 48.2783 29.0755 45.8934 29.3197 45.6826L29.3725 45.6299C29.2861 45.6755 29.2023 45.7261 29.1217 45.7814C28.6069 46.1371 27.5773 46.7762 27.3 46.9475C27.0228 47.1188 26.64 47.3428 26.1516 47.6063C26.1978 47.4614 26.2638 47.2637 26.3364 47.02C26.673 45.9593 26.9964 44.9381 27.0492 44.6614L27.2274 44.0553C27.2274 43.9564 27.2934 43.8642 27.3132 43.7654C27.3259 43.6968 27.3481 43.6302 27.3792 43.5677C27.4031 43.5369 27.4296 43.5082 27.4584 43.4821C28.0941 42.6438 28.6718 41.7633 29.1877 40.8468C29.4921 40.2888 29.7611 39.7123 29.993 39.1207C30.2488 38.4788 30.4541 37.818 30.6068 37.1442M24.6995 50.7291L24.6269 50.795C24.6488 50.7687 24.6731 50.7444 24.6995 50.7226M30.6464 27.9668L28.6663 36.6435C28.5316 37.2285 28.3551 37.8032 28.1383 38.363C27.9426 38.875 27.7156 39.3744 27.4584 39.8586C26.9986 40.6749 26.4894 41.4625 25.9338 42.2171C25.8339 42.342 25.7434 42.4742 25.6632 42.6124C25.5375 42.8293 25.4484 43.0652 25.3992 43.3108C25.3992 43.3833 25.353 43.4491 25.3332 43.5216C25.3134 43.5941 25.2738 43.7259 25.2474 43.8247L25.1549 44.1211C25.1021 44.3122 24.8051 45.34 24.4949 46.4402C24.4223 46.6774 24.3563 46.8684 24.3101 47.0068L23.6501 49.0294L23.3927 49.2666L23.3201 49.339L23.0495 49.5828L22.9835 49.7607C22.835 49.9897 22.7382 50.2482 22.6996 50.5183L20.911 55.275L20.2509 57.0868L19.8351 57.403L19.4523 57.6929L19.2477 58.1343L15.6505 65.7964L14.6341 67.9508L14.0863 68.2604L13.5979 68.5174L13.3206 68.9851L7.48599 79.0058L5.3541 82.6689L9.53868 81.9508L18.6999 80.3762L21.8218 79.836L26.442 79.0058H26.6136L26.772 78.9466L40.4346 73.867L43.3783 75.8435L45.9392 77.4576H45.9788H46.0184C48.751 79.0981 49.741 79.4341 50.5198 79.4341C50.9918 79.4386 51.4533 79.2958 51.8399 79.0256C52.0818 78.8519 52.2848 78.6298 52.4359 78.3734C52.5871 78.1171 52.683 77.8321 52.7177 77.5367C52.8365 76.5155 52.2689 75.6129 51.1733 74.348C50.3482 73.0303 48.7708 70.395 48.1173 69.2091L47.9919 68.9786L47.6883 68.4251L47.1207 68.1484L46.1372 67.6675L45.7478 66.1193L45.695 65.9216L45.6026 65.724L45.0548 64.5842C44.7512 63.9254 44.5268 63.4774 44.342 63.0887C44.012 62.3903 43.5103 61.3164 43.0219 60.1635L42.4741 58.9381C42.4467 58.4936 42.2619 58.0733 41.9527 57.7522L41.8999 57.6336L41.4972 57.3701L41.319 57.3569L40.9428 57.1131L40.8438 57.0407C40.692 56.9484 40.5006 56.8167 40.2828 56.6717C40.3901 56.3899 40.4362 56.0885 40.418 55.7875C40.3998 55.4865 40.3177 55.1928 40.1772 54.9259C40.1452 54.8601 40.1187 54.7918 40.098 54.7216C40.0452 54.5767 39.9858 54.4383 39.9264 54.3L39.867 54.1419L39.801 53.9442L39.405 52.8835C39.2069 52.3564 38.9957 51.7833 38.6327 50.7884L38.3951 50.0703L38.2235 49.5894L37.8407 49.2534L37.3589 48.8251L36.8903 48.3903C36.9928 48.1474 37.0457 47.8864 37.0457 47.6228C37.0457 47.3592 36.9928 47.0982 36.8903 46.8553L36.745 46.3743L36.7054 46.2426C36.5734 45.8341 36.3226 44.9974 36.151 44.4308L35.8342 43.3701L35.7814 43.1922C35.7478 43.0491 35.6991 42.91 35.6362 42.7771C35.5411 42.5774 35.4165 42.3931 35.2666 42.2303C34.2435 40.7348 33.8277 39.9969 33.8211 39.9903C33.496 39.4222 33.2157 38.8297 32.9829 38.2181C32.8014 37.7347 32.6537 37.2394 32.5407 36.7357L30.6464 28.0393V27.9668Z" fill="white"/>
<path d="M19.6371 29.3307H19.6899C19.7149 29.3289 19.7389 29.3206 19.7597 29.3068C19.7805 29.2929 19.7974 29.2739 19.8087 29.2517C19.8266 29.2245 19.8421 29.1959 19.8549 29.166C20.0801 28.7965 20.3972 28.4913 20.7753 28.28C21.1535 28.0688 21.5799 27.9587 22.0132 27.9604C22.5287 27.9578 23.032 28.1168 23.4521 28.415C23.7587 28.6337 24.0133 28.9171 24.1979 29.2451L24.2441 29.3241C24.2524 29.349 24.2683 29.3707 24.2897 29.3861C24.311 29.4014 24.3366 29.4097 24.3629 29.4098C24.4355 29.4098 24.4619 29.3373 24.4685 29.2648C24.4837 29.0164 24.519 28.7697 24.5741 28.5269C24.7315 28.0082 25.0521 27.5538 25.4883 27.231C25.9246 26.9083 26.4534 26.7343 26.9964 26.735C27.4639 26.7347 27.9217 26.8672 28.3165 27.1171C28.3504 27.1453 28.3915 27.1636 28.4353 27.1698C28.4522 27.1695 28.4689 27.1652 28.4838 27.1572C28.4988 27.1492 28.5115 27.1377 28.5211 27.1237C28.5355 27.1101 28.5469 27.0938 28.5548 27.0756C28.5626 27.0575 28.5666 27.038 28.5666 27.0182C28.5666 26.9985 28.5626 26.979 28.5548 26.9608C28.5469 26.9427 28.5355 26.9264 28.5211 26.9128C28.2874 26.6103 27.9875 26.3651 27.6443 26.1961C27.3011 26.0271 26.9237 25.9387 26.541 25.9378C26.1696 25.9324 25.8013 26.0054 25.4601 26.1518C25.1189 26.2983 24.8125 26.5149 24.5609 26.7877C24.2888 27.0859 24.098 27.4489 24.0065 27.8418C23.9796 27.8116 23.951 27.783 23.9207 27.7561C23.7363 27.5504 23.5117 27.3844 23.2607 27.2686C22.9002 27.1032 22.5089 27.0157 22.1122 27.0117C21.509 27.0196 20.9266 27.2335 20.4621 27.6178C19.9672 27.9941 19.6363 28.5462 19.5381 29.1594C19.5381 29.2385 19.5381 29.2978 19.6371 29.3307Z" fill="white"/>
<path d="M27.8413 23.0592C27.8673 23.0652 27.8944 23.0652 27.9205 23.0592C27.9554 23.0538 27.9885 23.0403 28.0172 23.0197C28.0459 22.9991 28.0693 22.972 28.0855 22.9406L28.1515 22.8221C28.4686 22.3027 28.9148 21.874 29.4467 21.5774C29.9786 21.2807 30.5783 21.1262 31.1876 21.1289C31.9136 21.1306 32.6204 21.3612 33.2073 21.7877C33.6435 22.094 34.0046 22.4949 34.2633 22.9604L34.3227 23.0658C34.334 23.1006 34.3561 23.1308 34.3857 23.1521C34.4154 23.1735 34.4512 23.1848 34.4877 23.1844H34.5405C34.6462 23.1844 34.6725 23.0856 34.6857 22.9868C34.7127 22.6346 34.7635 22.2846 34.8376 21.9392C35.0596 21.21 35.5103 20.5711 36.1235 20.1169C36.7366 19.6626 37.4797 19.4169 38.2433 19.4159C38.9035 19.4161 39.5496 19.6059 40.1046 19.9628C40.1553 19.9988 40.2143 20.0215 40.2762 20.0286C40.2982 20.0279 40.3197 20.0222 40.3391 20.0119C40.3586 20.0016 40.3754 19.9871 40.3884 19.9694C40.4808 19.8639 40.4478 19.7651 40.3884 19.6663C40.0513 19.237 39.6203 18.8904 39.1284 18.6529C38.6365 18.4154 38.0967 18.2933 37.5503 18.2959C37.0323 18.2939 36.5195 18.3995 36.0445 18.6059C35.5696 18.8124 35.1428 19.1151 34.7914 19.495C34.4065 19.9127 34.1379 20.4238 34.0125 20.9774C33.9597 20.9246 33.9267 20.8851 33.8871 20.8522C33.6218 20.5725 33.3031 20.3485 32.9499 20.1934C32.4476 19.9663 31.9039 19.8452 31.3526 19.8376C30.5012 19.8512 29.6796 20.1532 29.0227 20.6941C28.3421 21.225 27.891 21.9959 27.7621 22.8484C27.7159 22.9538 27.7357 23.0592 27.8413 23.0592Z" fill="white"/>
<path d="M39.2861 74.7038L36.7912 75.3627L28.7719 77.3391C24.4091 78.3998 24.4091 78.3998 24.2837 78.3998H22.9108L23.3464 77.0822L29.2075 62.8845L29.3065 62.6474L34.2435 58.7801L30.8246 60.4733L35.2336 47.2046L37.2664 45.0173L36.2434 45.6761L38.7119 36.2351C38.7042 36.0333 38.7571 35.8337 38.8637 35.662L40.0914 34.0676C40.2036 33.9095 40.3158 33.7448 40.428 33.5669L39.6491 34.173L40.4412 30.6813C40.7712 29.1857 41.0616 27.7561 41.1474 27.3871L41.3256 26.5307L41.3652 26.3396L41.4048 26.1749C41.4255 26.0034 41.4677 25.8352 41.5302 25.6742C41.5709 25.576 41.6195 25.4813 41.6754 25.3909C42.2946 24.2047 42.8498 22.9863 43.3387 21.741C43.6357 20.9768 43.8931 20.1928 44.1175 19.3956C44.3633 18.5045 44.5594 17.6006 44.705 16.6878L45.7016 10.541L46.6586 16.734C46.7858 17.5325 46.9533 18.324 47.1603 19.1057C47.4112 20.0491 47.722 20.9755 48.0909 21.8794C48.0909 21.8794 48.5199 22.973 49.5958 25.1735L49.6552 25.2921L49.6948 25.3645C49.7763 25.4656 49.845 25.5762 49.8994 25.694C49.9222 25.7673 49.9399 25.8422 49.9522 25.918L50.3416 27.7693L50.896 30.3453L50.9356 30.5034C50.9884 30.7537 51.0412 30.9843 51.0676 31.1293V31.2808C51.1572 31.4893 51.1747 31.7216 51.1174 31.9411C51.06 32.1606 50.931 32.3548 50.7508 32.493L50.4868 32.6907H50.3152C50.5198 33.0003 51.0874 33.8238 51.8663 34.8318L52.3547 35.4445L52.4933 35.6158L52.8035 36.8478C53.1665 38.2643 53.3843 39.0747 53.5757 39.8191L54.0444 41.5914C54.0972 41.8154 54.1104 41.8483 54.1368 41.934C54.1632 42.0196 54.2292 42.2502 54.2688 42.4083C54.3084 42.5664 54.3546 42.7311 54.4074 42.8893C54.5118 43.1122 54.5374 43.364 54.4798 43.6034C54.4223 43.8427 54.285 44.0555 54.0906 44.2069L53.8266 44.3914H53.4965C53.4177 44.4018 53.3378 44.4018 53.2589 44.3914C53.6682 44.8064 53.9916 45.1227 54.216 45.3401C54.678 45.7947 55.1928 46.2756 55.536 46.5655L56.1961 47.1584L55.8 47.5933L56.2951 47.4351L56.5261 48.173C56.8561 49.2271 57.1861 50.2549 57.1861 50.2549C57.7471 52.0008 58.2686 53.549 58.5458 54.4055C58.7306 54.9655 58.9616 55.6441 59.2652 56.5401L59.7338 57.9104C59.8134 58.0701 59.8549 58.246 59.8549 58.4243C59.8549 58.6026 59.8134 58.7786 59.7338 58.9382L59.2982 59.7815L56.8165 58.6285L56.1565 58.3387L56.9023 58.8987C58.2224 59.8737 59.2718 60.6182 59.78 60.974L62.1099 62.5881L62.3409 63.1942C63.2122 65.4408 65.4959 70.6784 65.5157 70.7311C66.4001 72.7471 67.2449 74.8751 68.0238 77.0624L68.6508 78.8017L52.0907 74.7104L54.4206 79.2497H36.943L39.2861 74.7038Z" fill="#393939"/>
<path d="M45.6818 16.8525C45.7874 17.5113 45.9458 18.3546 46.2032 19.3297C46.4637 20.3086 46.7855 21.2702 47.1669 22.2087C47.1669 22.2087 47.5959 23.3024 48.7047 25.5819C48.7443 25.6742 48.7707 25.7137 48.7905 25.7532C48.8458 25.8371 48.8944 25.9252 48.9357 26.0167C48.9411 26.0737 48.9411 26.1311 48.9357 26.188L48.9951 26.4713C48.9951 26.5438 49.1998 27.4266 49.3186 27.98C49.4836 28.7838 49.741 29.9565 49.873 30.5626C49.939 30.8657 50.005 31.149 50.038 31.3203C50.048 31.4208 50.0679 31.5201 50.0974 31.6167C50.0974 31.6563 50.1304 31.7024 50.0974 31.709C50.0974 31.709 50.038 31.6629 49.9654 31.6036L49.807 31.485C49.4638 31.228 48.7905 30.6417 48.7905 30.6417C48.2097 30.1344 47.6025 29.6139 47.3781 29.3702C47.2725 29.2582 47.1603 29.1593 47.0481 29.0539C46.9359 28.9485 46.9491 28.9485 46.9293 28.9485C46.9293 28.9485 46.9293 29.0012 46.9293 29.0144C47.0679 29.2647 47.1669 29.5414 47.3187 29.7786C47.7279 30.4374 48.1833 31.4389 49.4308 33.277C49.576 33.4944 50.1766 34.364 51.028 35.4643L51.5231 36.1231L51.7871 37.1509C52.3811 39.4699 52.5725 40.1617 52.9487 41.6177C53.0873 42.1382 53.0939 42.1645 53.1335 42.2765C53.2325 42.5993 53.2985 42.9353 53.4107 43.2582C53.4107 43.324 53.4833 43.4558 53.4503 43.4822C53.4503 43.4822 53.3513 43.4229 53.2655 43.357C53.1404 43.2724 53.0104 43.1954 52.8761 43.1264C52.6319 42.988 50.1832 41.5386 49.2988 40.8732C49.0347 40.6756 48.7443 40.5306 48.4935 40.3198C48.4407 40.2737 48.3615 40.2078 48.3285 40.2078C48.3285 40.2473 48.4869 40.557 48.6123 40.7349C48.7377 40.9127 48.9093 41.117 48.9225 41.1367C49.213 41.453 48.8631 41.1367 49.7476 42.1184C50.4076 42.8299 50.764 43.2779 51.3449 43.9038C52.3151 44.9447 53.0873 45.7024 53.4965 46.0977C53.9058 46.493 54.4932 47.053 54.8166 47.3494L55.2918 47.7843L55.3446 47.949C55.3974 48.1137 55.503 48.4563 55.5228 48.5287C55.8528 49.5763 56.1829 50.6106 56.1829 50.6106C56.7373 52.3565 57.2653 53.9047 57.5425 54.7744C57.7273 55.3344 57.9583 56.013 58.2619 56.909C58.4666 57.5217 58.8164 58.5363 58.8164 58.5363L57.2059 57.7852L56.7901 57.5942L55.2852 56.8826C54.183 56.349 49.1734 53.74 49.0413 53.6873H48.9555C48.9555 53.6873 49.8598 54.5702 50.896 55.4662C51.2128 55.7429 51.4505 55.9405 51.9191 56.3292C52.1699 56.5334 52.6979 56.988 53.4569 57.5678C53.9784 57.9829 54.975 58.7669 56.3149 59.7683C57.7999 60.8751 58.955 61.6789 59.219 61.8633L61.2981 63.2469L61.4169 63.5631C62.3013 65.8558 64.6114 71.133 64.6114 71.1396C65.2714 72.5956 66.1295 74.717 67.0931 77.4116L50.2228 73.2412L52.8035 78.2746H38.5733L41.1672 73.2214L36.547 74.3744L24.2771 77.3984L30.0985 63.2469L42.5005 53.5753L32.5142 58.5297L36.1048 47.725L43.2991 39.9706L37.8473 43.4822L39.7746 36.1165C39.9924 35.8398 40.6524 35.0031 40.9032 34.6407C42.2959 32.6643 44.1439 29.2911 44.3882 28.9946L44.4476 28.9156C44.3622 28.9858 44.2807 29.0606 44.2033 29.1396C43.6819 29.6337 42.6523 30.5429 42.3817 30.78C42.1111 31.0172 41.7216 31.34 41.2332 31.7156C41.2794 31.5179 41.3454 31.2346 41.418 30.8986C41.748 29.3965 42.0781 27.9603 42.1309 27.565C42.1837 27.2751 42.2497 26.9918 42.3091 26.7085C42.3091 26.5702 42.3751 26.4384 42.3949 26.3C42.4037 26.2052 42.4259 26.112 42.4609 26.0233C42.4821 25.9736 42.5063 25.9252 42.5335 25.8784C43.183 24.656 43.7625 23.3978 44.2693 22.1099C44.6192 21.2007 44.8832 20.3706 45.0746 19.6723C45.3316 18.7467 45.5365 17.8075 45.6884 16.8591M39.7482 36.1033L39.6756 36.189L39.7482 36.0902M45.7214 4.15039L43.7413 16.5363C43.6023 17.4139 43.4127 18.2828 43.1737 19.1386C42.9625 19.9029 42.7117 20.6605 42.4279 21.3918C41.9615 22.5772 41.4305 23.7363 40.8372 24.8638C40.7571 24.9983 40.6887 25.1394 40.6326 25.2854C40.5408 25.5142 40.4766 25.7531 40.4412 25.997C40.4438 26.0233 40.4438 26.0498 40.4412 26.076L40.3818 26.3132C40.3818 26.4647 40.3224 26.6097 40.2894 26.7612L40.2102 27.1631C40.1508 27.4398 39.8538 28.8958 39.5039 30.4572C39.4313 30.7866 39.3653 31.0699 39.3191 31.2676L38.6129 34.397L38.2367 34.8845L38.1641 34.9833L37.9925 35.1942V35.3259C37.8629 35.5724 37.7907 35.8449 37.7813 36.1231L37.3588 37.4144L35.9002 42.9749L35.161 45.8078L34.6263 46.3744L34.3359 46.6906L34.1973 47.0991C34.1973 47.1518 30.6266 57.8577 30.6068 57.9104L29.5177 61.2045L28.8577 61.7052L28.4419 62.028L28.2439 62.509L22.4092 76.6473L20.9175 80.2511L24.7127 79.3156L36.9826 76.2916L37.3654 76.1993L36.7648 77.372L35.2798 80.2511H55.9585L54.5262 77.3918L53.919 76.1993L66.5717 79.3287L70.1557 80.2181L68.9148 76.7461C68.1228 74.5391 67.2713 72.3847 66.3803 70.349C66.3803 70.2963 64.0768 65.0784 63.2188 62.8516L63.0934 62.5353L62.8755 61.9622L62.3673 61.613L61.4763 61.0003L60.7371 58.0685V57.9894V57.9038C60.6975 57.7984 60.3806 56.8563 60.1826 56.2831C59.879 55.3937 59.6546 54.7151 59.4698 54.1617C59.1398 53.1734 58.6382 51.6581 58.1101 50.0177L57.4501 48.0412C57.4734 47.5839 57.333 47.1332 57.0541 46.7697V46.6972L56.8165 46.4798L56.6779 46.3546L56.2027 45.9198C55.9387 45.676 55.4832 45.261 55.0278 44.7998C55.2829 44.507 55.4504 44.1485 55.5111 43.7652C55.5718 43.3819 55.5232 42.9893 55.371 42.6323C55.3248 42.4939 55.2918 42.3622 55.2522 42.2238C55.2126 42.0854 55.1598 41.8746 55.107 41.7033C55.074 41.6042 55.0475 41.5029 55.0278 41.4003L54.9552 41.1302C54.81 40.5636 54.6912 40.109 54.5658 39.6346C54.3678 38.8902 54.15 38.0798 53.7936 36.6699L53.5295 35.6422L53.4239 35.2271L53.1533 34.8911C53.0345 34.7462 52.8695 34.5419 52.6781 34.2916C52.2953 33.7974 51.9653 33.3429 51.7013 32.9739C51.9138 32.7146 52.0567 32.4057 52.1168 32.0761C52.1768 31.7465 52.1519 31.407 52.0445 31.0897C52.0468 31.0524 52.0468 31.015 52.0445 30.9777C52.0445 30.8327 51.9719 30.6022 51.9125 30.3518L51.8729 30.1673C51.7409 29.581 51.4901 28.3951 51.3185 27.5979L51.0016 26.0958L50.9422 25.8125V25.773C50.9201 25.6502 50.8892 25.5291 50.8498 25.4106C50.7835 25.2101 50.6903 25.0195 50.5726 24.844L50.5264 24.7518C49.477 22.5843 49.0546 21.5236 49.048 21.5104C48.6967 20.6512 48.3991 19.7711 48.1569 18.8751C47.9587 18.1263 47.8001 17.3676 47.6817 16.6022L45.7214 4.15039Z" fill="white"/>
<path d="M9.21526 84.9095C32.7526 78.0132 57.7795 78.0132 81.3168 84.9095" stroke="white" stroke-width="3" stroke-miterlimit="10" stroke-linecap="round"/>
<path d="M20.9637 90.3513L18.8648 88.3749L13.1952 94.3767L12.4032 93.6257L18.0728 87.6238L15.9739 85.6473L16.6339 84.9424L21.6172 89.6332L20.9637 90.3513Z" fill="white"/>
<path d="M22.1782 90.0615C22.495 90.1867 22.8382 90.3448 23.2408 90.5425C23.6435 90.7401 23.9801 90.9312 24.2837 91.1222C24.6173 91.3213 24.9254 91.5603 25.2011 91.8338C25.4564 92.0828 25.6585 92.3808 25.7952 92.71C25.9287 93.0329 25.983 93.383 25.9536 93.7312C25.9076 94.1376 25.7675 94.5279 25.5443 94.8709C25.2339 95.4298 24.7254 95.8528 24.1187 96.0568C23.5503 96.2411 22.938 96.2411 22.3696 96.0568L22.6534 96.8013L22.7062 101.11L21.6106 100.451L21.5182 95.7011L20.5017 94.8709L18.317 98.4352L17.3798 97.8686L22.1782 90.0615ZM23.8085 91.9458C23.7161 91.8799 23.6105 91.8206 23.5049 91.7547L23.1946 91.5834L22.9042 91.4385C22.8337 91.3983 22.7583 91.3673 22.6798 91.3462L20.8977 94.2451L21.7756 94.7787C22.2239 95.075 22.7572 95.2161 23.2936 95.1806C23.5567 95.1449 23.8071 95.0459 24.0233 94.8921C24.2394 94.7383 24.4149 94.5343 24.5345 94.2978C24.6526 94.1142 24.7312 93.9081 24.7652 93.6926C24.7993 93.4772 24.7882 93.257 24.7325 93.046C24.6567 92.809 24.5341 92.5896 24.372 92.4007C24.2099 92.2117 24.0116 92.057 23.7887 91.9458H23.8085Z" fill="white"/>
<path d="M28.4551 93.5527L33.1545 95.3382L32.8113 96.2473L29.1349 94.8704L28.0591 97.6901L31.4252 98.9683L31.0754 99.884L27.7093 98.5664L26.541 101.637L30.2768 103.06L29.927 103.969L25.1682 102.157L28.4551 93.5527Z" fill="white"/>
<path d="M34.5802 95.7539L39.5106 96.7487L39.339 97.704L35.4778 96.9266L34.8838 99.8847L38.4149 100.596L38.2169 101.552L34.6858 100.84L34.0257 104.055L37.9397 104.846L37.7483 105.801L32.7387 104.793L34.5802 95.7539Z" fill="white"/>
<path d="M43.913 97.2295C44.3137 97.1372 44.7191 97.0668 45.1274 97.0187C45.5697 96.9594 46.0119 96.9265 46.4475 96.9067C46.9082 96.8871 47.3697 96.907 47.827 96.966C48.2711 97.0185 48.7012 97.1549 49.0942 97.3679C49.4778 97.5822 49.8004 97.8906 50.0315 98.2639C50.3015 98.7352 50.4426 99.2692 50.4407 99.8121C50.4747 100.318 50.3912 100.826 50.1965 101.294C50.0197 101.685 49.7555 102.03 49.4242 102.302C49.0962 102.575 48.717 102.779 48.3088 102.902C47.8804 103.034 47.4366 103.109 46.9887 103.126H46.4739H46.1637H45.9459L46.0647 106.295L44.2628 106.367L43.913 97.2295ZM46.6587 98.455C46.4805 98.455 46.3155 98.455 46.1571 98.4945L45.7743 98.5538L45.8931 101.545H46.0515H46.2759H46.6719C46.9076 101.537 47.142 101.506 47.3715 101.453C47.5949 101.407 47.8062 101.315 47.992 101.182C48.1736 101.052 48.319 100.877 48.4144 100.675C48.5228 100.41 48.568 100.124 48.5464 99.8385C48.5453 99.5896 48.4818 99.345 48.3616 99.127C48.2549 98.9481 48.1051 98.7987 47.926 98.6921C47.7463 98.5772 47.5435 98.5029 47.3319 98.4747C47.1085 98.4485 46.8833 98.4419 46.6587 98.455Z" fill="white"/>
<path d="M50.8961 96.7614L56.2621 95.6875L56.5789 97.2621L52.9817 97.9802L53.4108 100.088L56.7109 99.4296L57.0277 101.004L53.7276 101.663L54.1698 103.87L57.833 103.139L58.1498 104.713L52.7177 105.807L50.8961 96.7614Z" fill="white"/>
<path d="M63.9118 100.537L61.2717 101.565L61.3641 103.719L59.681 104.378L59.3972 94.4953L60.6381 94.0078L67.113 101.459L65.3441 102.151L63.9118 100.537ZM61.1661 100.043L63.0142 99.3245L61.6281 97.6577L60.8427 96.4125H60.7767L61.0539 97.8751L61.1661 100.043Z" fill="white"/>
<path d="M73.4888 97.1565C73.3378 97.5115 73.1128 97.8304 72.8288 98.092C72.4961 98.3948 72.136 98.6661 71.753 98.9023C71.2984 99.1872 70.7984 99.3922 70.2745 99.5085C69.7651 99.6335 69.2329 99.6335 68.7234 99.5085C68.1549 99.3608 67.6255 99.091 67.1724 98.7179C66.5909 98.2351 66.0974 97.6556 65.7137 97.0049C65.2781 96.3585 64.9732 95.6334 64.8161 94.8703C64.7059 94.2849 64.7239 93.6826 64.8689 93.1047C65.0048 92.5947 65.2503 92.1204 65.5883 91.7146C65.9126 91.3322 66.2931 91.0012 66.7169 90.7329C67.0942 90.4922 67.4944 90.2891 67.9116 90.1268C68.2037 90.0097 68.5065 89.9214 68.8158 89.8633L69.3175 91.3522C69.0665 91.3796 68.8215 91.4463 68.5914 91.5499C68.2817 91.6829 67.9836 91.8416 67.7004 92.0242C67.4101 92.1874 67.161 92.4148 66.9723 92.6888C66.7835 92.9629 66.6601 93.2764 66.6113 93.6054C66.5527 94.4663 66.8005 95.3203 67.311 96.0167C67.5379 96.3913 67.813 96.7347 68.1294 97.0379C68.3978 97.2992 68.7167 97.5032 69.0666 97.6374C69.3943 97.7633 69.7475 97.8085 70.0963 97.7692C70.4772 97.7206 70.8425 97.5878 71.1655 97.3805C71.458 97.2104 71.7247 96.9997 71.9576 96.7546C72.1349 96.5551 72.2857 96.3337 72.4064 96.0958L73.4888 97.1565Z" fill="white"/>
<path d="M69.1722 89.3037L73.1984 85.5879L74.2874 86.7738L71.5945 89.2575L73.0532 90.8321L75.5085 88.5724L76.5975 89.7516L74.1488 92.018L75.6801 93.6716L78.4258 91.1352L79.5148 92.3145L75.4491 96.0764L69.1722 89.3037Z" fill="white"/>
</svg>
