<svg width="64" height="64" viewBox="0 0 64 64" fill="none" xmlns="http://www.w3.org/2000/svg">
<circle cx="32" cy="32" r="32" fill="#00FF9F"/>
<path d="M56.43 31.9997C56.43 45.492 32.9462 48.6022 31.9999 48.1721C30.8817 48.7742 7.56982 45.492 7.56982 31.9997C7.56982 20.9033 20.387 12.9892 31.9999 29.6772C44.129 11.4408 56.7741 21.9354 56.43 31.9997Z" fill="#393939"/>
<path d="M34.5807 36.0431C34.5807 33.6677 33.8926 31.3119 32.0001 29.9356C30.1936 30.9678 29.4194 33.6677 29.4194 36.0431C29.4194 38.4185 30.4517 40.3442 32.0001 41.8926C33.8065 40.4302 34.5807 38.4185 34.5807 36.0431Z" fill="#00FF9F"/>
<circle cx="4.30107" cy="4.30107" r="4.30107" transform="matrix(1 0 0 -1 41.2905 35.2688)" fill="#00FF9F"/>
<circle cx="4.30107" cy="4.30107" r="4.30107" transform="matrix(1 0 0 -1 14.1074 35.2688)" fill="#00FF9F"/>
</svg>
