<svg width="64" height="64" viewBox="0 0 64 64" fill="none" xmlns="http://www.w3.org/2000/svg">
<path fill-rule="evenodd" clip-rule="evenodd" d="M0 32C0 23.5131 3.37142 15.3737 9.37258 9.37258C15.3737 3.37142 23.5131 0 32 0C40.4869 0 48.6263 3.37142 54.6274 9.37258C60.6286 15.3737 64 23.5131 64 32C64 40.4869 60.6286 48.6263 54.6274 54.6274C48.6263 60.6286 40.4869 64 32 64C23.5131 64 15.3737 60.6286 9.37258 54.6274C3.37142 48.6263 0 40.4869 0 32ZM32 4.59007C24.7304 4.59007 17.7586 7.47789 12.6182 12.6182C7.47789 17.7586 4.59007 24.7304 4.59007 32C4.59007 39.2696 7.47789 46.2414 12.6182 51.3817C17.7586 56.5221 24.7304 59.4099 32 59.4099C39.2696 59.4099 46.2414 56.5221 51.3817 51.3817C56.5221 46.2414 59.4099 39.2696 59.4099 32C59.4099 24.7304 56.5221 17.7586 51.3817 12.6182C46.2414 7.47789 39.2696 4.59007 32 4.59007ZM30.1881 39.2475C29.9224 39.8611 26.3566 53.5491 26.3566 53.5491C26.2741 53.8556 26.1321 54.1428 25.9386 54.3944C25.7451 54.646 25.504 54.857 25.229 55.0153C24.6735 55.3352 24.0138 55.4213 23.3948 55.2547C23.0884 55.1722 22.8012 55.0302 22.5496 54.8367C22.298 54.6432 22.087 54.4021 21.9286 54.127C21.6088 53.5716 21.5227 52.9118 21.6893 52.2929C21.6893 52.2929 25.9411 38.6339 25.9411 35.7204V28.6227L16.4807 26.0861C16.1696 26.0085 15.877 25.8698 15.6201 25.678C15.3631 25.4862 15.1469 25.2452 14.984 24.969C14.8211 24.6928 14.7149 24.3869 14.6714 24.0692C14.628 23.7515 14.6482 23.4284 14.731 23.1186C14.8137 22.8088 14.9573 22.5186 15.1533 22.2648C15.3494 22.0111 15.594 21.7989 15.8729 21.6407C16.1518 21.4825 16.4594 21.3814 16.7778 21.3433C17.0962 21.3051 17.4189 21.3308 17.7273 21.4187C17.7273 21.4187 25.7189 24.1389 28.8401 24.1389H35.1647C38.2811 24.1389 46.2678 21.4187 46.2678 21.4187C46.8868 21.2521 47.5465 21.3382 48.102 21.6581C48.6574 21.9779 49.0631 22.5053 49.2297 23.1243C49.3962 23.7432 49.3101 24.403 48.9903 24.9584C48.6704 25.5138 48.143 25.9195 47.5241 26.0861L38.0251 28.6323V35.7204C38.0251 38.6339 42.2769 52.2784 42.2769 52.2784C42.4429 52.8974 42.3561 53.5569 42.0358 54.1118C41.7155 54.6668 41.1879 55.0719 40.5689 55.2378C39.95 55.4037 39.2905 55.317 38.7355 54.9967C38.1805 54.6764 37.7755 54.1488 37.6095 53.5298C37.6095 53.5298 34.0293 39.8611 33.7829 39.2475C33.5413 38.6339 32.7247 38.6339 32.7247 38.6339H31.2414C31.2414 38.6339 30.4056 38.6339 30.1881 39.2475ZM32 20.5007C33.4416 20.5007 34.8242 19.928 35.8435 18.9086C36.8629 17.8893 37.4356 16.5067 37.4356 15.0651C37.4356 13.6235 36.8629 12.2409 35.8435 11.2215C34.8242 10.2022 33.4416 9.62947 32 9.62947C30.5584 9.62947 29.1758 10.2022 28.1564 11.2215C27.1371 12.2409 26.5644 13.6235 26.5644 15.0651C26.5644 16.5067 27.1371 17.8893 28.1564 18.9086C29.1758 19.928 30.5584 20.5007 32 20.5007Z" fill="#00FF9F"/>
</svg>
